<?xml version="1.0" encoding="utf-8" ?>
<svg baseProfile="full" height="100px" version="1.1" width="100px" xmlns="http://www.w3.org/2000/svg" xmlns:ev="http://www.w3.org/2001/xml-events" xmlns:xlink="http://www.w3.org/1999/xlink"><defs><clipPath id="border_clip"><rect height="100" width="100" x="0" y="0" /></clipPath></defs><line clip-path="url(#border_clip)" stroke="#000000" stroke-linecap="round" stroke-width="1" x1="69.0" x2="69.0" y1="82.909" y2="82.909" /><line clip-path="url(#border_clip)" stroke="#000000" stroke-linecap="round" stroke-width="1" x1="69.0" x2="88.0" y1="82.909" y2="50.0" /><line clip-path="url(#border_clip)" stroke="#000000" stroke-linecap="round" stroke-width="1" x1="88.0" x2="69.0" y1="50.0" y2="17.091" /><line clip-path="url(#border_clip)" stroke="#000000" stroke-linecap="round" stroke-width="1" x1="69.0" x2="31.0" y1="17.091" y2="17.091" /><line clip-path="url(#border_clip)" stroke="#000000" stroke-linecap="round" stroke-width="1" x1="31.0" x2="12.0" y1="17.091" y2="50.0" /><line clip-path="url(#border_clip)" stroke="#000000" stroke-linecap="round" stroke-width="1" x1="12.0" x2="31.0" y1="50.0" y2="82.909" /><line clip-path="url(#border_clip)" stroke="#000000" stroke-linecap="round" stroke-width="1" x1="31.0" x2="69.0" y1="82.909" y2="82.909" /><polygon clip-path="url(#border_clip)" fill="#1f78b4" fill-rule="evenodd" points="69.0,82.909 88.0,50.0 69.0,17.091 31.0,17.091 12.0,50.0 31.0,82.909 69.0,82.909" /><line clip-path="url(#border_clip)" stroke="#000000" stroke-linecap="round" stroke-width="1" x1="69.0" x2="88.0" y1="82.909" y2="50.0" /><line clip-path="url(#border_clip)" stroke="#000000" stroke-linecap="round" stroke-width="1" x1="88.0" x2="69.0" y1="50.0" y2="17.091" /><line clip-path="url(#border_clip)" stroke="#000000" stroke-linecap="round" stroke-width="1" x1="69.0" x2="31.0" y1="17.091" y2="17.091" /><line clip-path="url(#border_clip)" stroke="#000000" stroke-linecap="round" stroke-width="1" x1="31.0" x2="12.0" y1="17.091" y2="50.0" /><line clip-path="url(#border_clip)" stroke="#000000" stroke-linecap="round" stroke-width="1" x1="12.0" x2="31.0" y1="50.0" y2="82.909" /><line clip-path="url(#border_clip)" stroke="#000000" stroke-linecap="round" stroke-width="1" x1="31.0" x2="69.0" y1="82.909" y2="82.909" /><line clip-path="url(#border_clip)" stroke="#000000" stroke-linecap="round" stroke-width="1" x1="69.0" x2="69.0" y1="82.909" y2="82.909" /></svg>