<?xml version="1.0" encoding="utf-8" ?>
<svg baseProfile="full" height="100px" version="1.1" width="100px" xmlns="http://www.w3.org/2000/svg" xmlns:ev="http://www.w3.org/2001/xml-events" xmlns:xlink="http://www.w3.org/1999/xlink"><defs><clipPath id="border_clip"><rect height="100" width="100" x="0" y="0" /></clipPath></defs><line clip-path="url(#border_clip)" stroke="#000000" stroke-linecap="round" stroke-width="1" x1="50.0" x2="50.0" y1="88.0" y2="88.0" /><line clip-path="url(#border_clip)" stroke="#000000" stroke-linecap="round" stroke-width="1" x1="50.0" x2="62.997" y1="88.0" y2="85.708" /><line clip-path="url(#border_clip)" stroke="#000000" stroke-linecap="round" stroke-width="1" x1="62.997" x2="74.426" y1="85.708" y2="79.11" /><line clip-path="url(#border_clip)" stroke="#000000" stroke-linecap="round" stroke-width="1" x1="74.426" x2="82.909" y1="79.11" y2="69.0" /><line clip-path="url(#border_clip)" stroke="#000000" stroke-linecap="round" stroke-width="1" x1="82.909" x2="87.423" y1="69.0" y2="56.599" /><line clip-path="url(#border_clip)" stroke="#000000" stroke-linecap="round" stroke-width="1" x1="87.423" x2="87.423" y1="56.599" y2="43.401" /><line clip-path="url(#border_clip)" stroke="#000000" stroke-linecap="round" stroke-width="1" x1="87.423" x2="82.909" y1="43.401" y2="31.0" /><line clip-path="url(#border_clip)" stroke="#000000" stroke-linecap="round" stroke-width="1" x1="82.909" x2="74.426" y1="31.0" y2="20.89" /><line clip-path="url(#border_clip)" stroke="#000000" stroke-linecap="round" stroke-width="1" x1="74.426" x2="62.997" y1="20.89" y2="14.292" /><line clip-path="url(#border_clip)" stroke="#000000" stroke-linecap="round" stroke-width="1" x1="62.997" x2="50.0" y1="14.292" y2="12.0" /><line clip-path="url(#border_clip)" stroke="#000000" stroke-linecap="round" stroke-width="1" x1="50.0" x2="37.003" y1="12.0" y2="14.292" /><line clip-path="url(#border_clip)" stroke="#000000" stroke-linecap="round" stroke-width="1" x1="37.003" x2="25.574" y1="14.292" y2="20.89" /><line clip-path="url(#border_clip)" stroke="#000000" stroke-linecap="round" stroke-width="1" x1="25.574" x2="17.091" y1="20.89" y2="31.0" /><line clip-path="url(#border_clip)" stroke="#000000" stroke-linecap="round" stroke-width="1" x1="17.091" x2="12.577" y1="31.0" y2="43.401" /><line clip-path="url(#border_clip)" stroke="#000000" stroke-linecap="round" stroke-width="1" x1="12.577" x2="12.577" y1="43.401" y2="56.599" /><line clip-path="url(#border_clip)" stroke="#000000" stroke-linecap="round" stroke-width="1" x1="12.577" x2="17.091" y1="56.599" y2="69.0" /><line clip-path="url(#border_clip)" stroke="#000000" stroke-linecap="round" stroke-width="1" x1="17.091" x2="25.574" y1="69.0" y2="79.11" /><line clip-path="url(#border_clip)" stroke="#000000" stroke-linecap="round" stroke-width="1" x1="25.574" x2="37.003" y1="79.11" y2="85.708" /><line clip-path="url(#border_clip)" stroke="#000000" stroke-linecap="round" stroke-width="1" x1="37.003" x2="50.0" y1="85.708" y2="88.0" /><polygon clip-path="url(#border_clip)" fill="#e31a1c" fill-rule="evenodd" points="50.0,88.0 62.997,85.708 74.426,79.11 82.909,69.0 87.423,56.599 87.423,43.401 82.909,31.0 74.426,20.89 62.997,14.292 50.0,12.0 37.003,14.292 25.574,20.89 17.091,31.0 12.577,43.401 12.577,56.599 17.091,69.0 25.574,79.11 37.003,85.708 50.0,88.0" /><line clip-path="url(#border_clip)" stroke="#000000" stroke-linecap="round" stroke-width="1" x1="50.0" x2="62.997" y1="88.0" y2="85.708" /><line clip-path="url(#border_clip)" stroke="#000000" stroke-linecap="round" stroke-width="1" x1="62.997" x2="74.426" y1="85.708" y2="79.11" /><line clip-path="url(#border_clip)" stroke="#000000" stroke-linecap="round" stroke-width="1" x1="74.426" x2="82.909" y1="79.11" y2="69.0" /><line clip-path="url(#border_clip)" stroke="#000000" stroke-linecap="round" stroke-width="1" x1="82.909" x2="87.423" y1="69.0" y2="56.599" /><line clip-path="url(#border_clip)" stroke="#000000" stroke-linecap="round" stroke-width="1" x1="87.423" x2="87.423" y1="56.599" y2="43.401" /><line clip-path="url(#border_clip)" stroke="#000000" stroke-linecap="round" stroke-width="1" x1="87.423" x2="82.909" y1="43.401" y2="31.0" /><line clip-path="url(#border_clip)" stroke="#000000" stroke-linecap="round" stroke-width="1" x1="82.909" x2="74.426" y1="31.0" y2="20.89" /><line clip-path="url(#border_clip)" stroke="#000000" stroke-linecap="round" stroke-width="1" x1="74.426" x2="62.997" y1="20.89" y2="14.292" /><line clip-path="url(#border_clip)" stroke="#000000" stroke-linecap="round" stroke-width="1" x1="62.997" x2="50.0" y1="14.292" y2="12.0" /><line clip-path="url(#border_clip)" stroke="#000000" stroke-linecap="round" stroke-width="1" x1="50.0" x2="37.003" y1="12.0" y2="14.292" /><line clip-path="url(#border_clip)" stroke="#000000" stroke-linecap="round" stroke-width="1" x1="37.003" x2="25.574" y1="14.292" y2="20.89" /><line clip-path="url(#border_clip)" stroke="#000000" stroke-linecap="round" stroke-width="1" x1="25.574" x2="17.091" y1="20.89" y2="31.0" /><line clip-path="url(#border_clip)" stroke="#000000" stroke-linecap="round" stroke-width="1" x1="17.091" x2="12.577" y1="31.0" y2="43.401" /><line clip-path="url(#border_clip)" stroke="#000000" stroke-linecap="round" stroke-width="1" x1="12.577" x2="12.577" y1="43.401" y2="56.599" /><line clip-path="url(#border_clip)" stroke="#000000" stroke-linecap="round" stroke-width="1" x1="12.577" x2="17.091" y1="56.599" y2="69.0" /><line clip-path="url(#border_clip)" stroke="#000000" stroke-linecap="round" stroke-width="1" x1="17.091" x2="25.574" y1="69.0" y2="79.11" /><line clip-path="url(#border_clip)" stroke="#000000" stroke-linecap="round" stroke-width="1" x1="25.574" x2="37.003" y1="79.11" y2="85.708" /><line clip-path="url(#border_clip)" stroke="#000000" stroke-linecap="round" stroke-width="1" x1="37.003" x2="50.0" y1="85.708" y2="88.0" /><line clip-path="url(#border_clip)" stroke="#000000" stroke-linecap="round" stroke-width="1" x1="50.0" x2="50.0" y1="88.0" y2="88.0" /></svg>