<?xml version="1.0" encoding="utf-8" ?>
<svg baseProfile="full" height="32px" version="1.1" width="32px" xmlns="http://www.w3.org/2000/svg" xmlns:ev="http://www.w3.org/2001/xml-events" xmlns:xlink="http://www.w3.org/1999/xlink"><defs><clipPath id="border_clip"><rect height="32" width="32" x="0" y="0" /></clipPath></defs><line clip-path="url(#border_clip)" stroke="#000000" stroke-linecap="round" stroke-width="1" x1="1.0" x2="1.0" y1="1.0" y2="1.0" /><line clip-path="url(#border_clip)" stroke="#000000" stroke-linecap="round" stroke-width="1" x1="1.0" x2="11.0" y1="1.0" y2="1.0" /><line clip-path="url(#border_clip)" stroke="#000000" stroke-linecap="round" stroke-width="1" x1="11.0" x2="11.0" y1="1.0" y2="11.0" /><line clip-path="url(#border_clip)" stroke="#000000" stroke-linecap="round" stroke-width="1" x1="11.0" x2="1.0" y1="11.0" y2="11.0" /><line clip-path="url(#border_clip)" stroke="#000000" stroke-linecap="round" stroke-width="1" x1="1.0" x2="1.0" y1="11.0" y2="1.0" /><polygon clip-path="url(#border_clip)" fill="#b2df8a" fill-rule="evenodd" points="1.0,1.0 11.0,1.0 11.0,11.0 1.0,11.0 1.0,1.0" /><line clip-path="url(#border_clip)" stroke="#000000" stroke-linecap="round" stroke-width="1" x1="1.0" x2="11.0" y1="1.0" y2="1.0" /><line clip-path="url(#border_clip)" stroke="#000000" stroke-linecap="round" stroke-width="1" x1="11.0" x2="11.0" y1="1.0" y2="11.0" /><line clip-path="url(#border_clip)" stroke="#000000" stroke-linecap="round" stroke-width="1" x1="11.0" x2="1.0" y1="11.0" y2="11.0" /><line clip-path="url(#border_clip)" stroke="#000000" stroke-linecap="round" stroke-width="1" x1="1.0" x2="1.0" y1="11.0" y2="1.0" /><line clip-path="url(#border_clip)" stroke="#000000" stroke-linecap="round" stroke-width="1" x1="1.0" x2="1.0" y1="1.0" y2="1.0" /><line clip-path="url(#border_clip)" stroke="#000000" stroke-linecap="round" stroke-width="1" x1="11.0" x2="11.0" y1="1.0" y2="1.0" /><line clip-path="url(#border_clip)" stroke="#000000" stroke-linecap="round" stroke-width="1" x1="11.0" x2="21.0" y1="1.0" y2="1.0" /><line clip-path="url(#border_clip)" stroke="#000000" stroke-linecap="round" stroke-width="1" x1="21.0" x2="21.0" y1="1.0" y2="11.0" /><line clip-path="url(#border_clip)" stroke="#000000" stroke-linecap="round" stroke-width="1" x1="21.0" x2="11.0" y1="11.0" y2="11.0" /><line clip-path="url(#border_clip)" stroke="#000000" stroke-linecap="round" stroke-width="1" x1="11.0" x2="11.0" y1="11.0" y2="1.0" /><polygon clip-path="url(#border_clip)" fill="#a6cee3" fill-rule="evenodd" points="11.0,1.0 21.0,1.0 21.0,11.0 11.0,11.0 11.0,1.0" /><line clip-path="url(#border_clip)" stroke="#000000" stroke-linecap="round" stroke-width="1" x1="11.0" x2="21.0" y1="1.0" y2="1.0" /><line clip-path="url(#border_clip)" stroke="#000000" stroke-linecap="round" stroke-width="1" x1="21.0" x2="21.0" y1="1.0" y2="11.0" /><line clip-path="url(#border_clip)" stroke="#000000" stroke-linecap="round" stroke-width="1" x1="21.0" x2="11.0" y1="11.0" y2="11.0" /><line clip-path="url(#border_clip)" stroke="#000000" stroke-linecap="round" stroke-width="1" x1="11.0" x2="11.0" y1="11.0" y2="1.0" /><line clip-path="url(#border_clip)" stroke="#000000" stroke-linecap="round" stroke-width="1" x1="11.0" x2="11.0" y1="1.0" y2="1.0" /><line clip-path="url(#border_clip)" stroke="#000000" stroke-linecap="round" stroke-width="1" x1="21.0" x2="21.0" y1="1.0" y2="1.0" /><line clip-path="url(#border_clip)" stroke="#000000" stroke-linecap="round" stroke-width="1" x1="21.0" x2="31.0" y1="1.0" y2="1.0" /><line clip-path="url(#border_clip)" stroke="#000000" stroke-linecap="round" stroke-width="1" x1="31.0" x2="31.0" y1="1.0" y2="11.0" /><line clip-path="url(#border_clip)" stroke="#000000" stroke-linecap="round" stroke-width="1" x1="31.0" x2="21.0" y1="11.0" y2="11.0" /><line clip-path="url(#border_clip)" stroke="#000000" stroke-linecap="round" stroke-width="1" x1="21.0" x2="21.0" y1="11.0" y2="1.0" /><polygon clip-path="url(#border_clip)" fill="#fb9a99" fill-rule="evenodd" points="21.0,1.0 31.0,1.0 31.0,11.0 21.0,11.0 21.0,1.0" /><line clip-path="url(#border_clip)" stroke="#000000" stroke-linecap="round" stroke-width="1" x1="21.0" x2="31.0" y1="1.0" y2="1.0" /><line clip-path="url(#border_clip)" stroke="#000000" stroke-linecap="round" stroke-width="1" x1="31.0" x2="31.0" y1="1.0" y2="11.0" /><line clip-path="url(#border_clip)" stroke="#000000" stroke-linecap="round" stroke-width="1" x1="31.0" x2="21.0" y1="11.0" y2="11.0" /><line clip-path="url(#border_clip)" stroke="#000000" stroke-linecap="round" stroke-width="1" x1="21.0" x2="21.0" y1="11.0" y2="1.0" /><line clip-path="url(#border_clip)" stroke="#000000" stroke-linecap="round" stroke-width="1" x1="21.0" x2="21.0" y1="1.0" y2="1.0" /><line clip-path="url(#border_clip)" stroke="#000000" stroke-linecap="round" stroke-width="1" x1="18.828" x2="18.828" y1="8.828" y2="8.828" /><line clip-path="url(#border_clip)" stroke="#000000" stroke-linecap="round" stroke-width="1" x1="18.828" x2="18.828" y1="8.828" y2="3.172" /><line clip-path="url(#border_clip)" stroke="#000000" stroke-linecap="round" stroke-width="1" x1="18.828" x2="13.172" y1="3.172" y2="3.172" /><line clip-path="url(#border_clip)" stroke="#000000" stroke-linecap="round" stroke-width="1" x1="13.172" x2="13.172" y1="3.172" y2="8.828" /><line clip-path="url(#border_clip)" stroke="#000000" stroke-linecap="round" stroke-width="1" x1="13.172" x2="18.828" y1="8.828" y2="8.828" /><polygon clip-path="url(#border_clip)" fill="#1f78b4" fill-rule="evenodd" points="18.828,8.828 18.828,3.172 13.172,3.172 13.172,8.828 18.828,8.828" /><line clip-path="url(#border_clip)" stroke="#000000" stroke-linecap="round" stroke-width="1" x1="18.828" x2="18.828" y1="8.828" y2="3.172" /><line clip-path="url(#border_clip)" stroke="#000000" stroke-linecap="round" stroke-width="1" x1="18.828" x2="13.172" y1="3.172" y2="3.172" /><line clip-path="url(#border_clip)" stroke="#000000" stroke-linecap="round" stroke-width="1" x1="13.172" x2="13.172" y1="3.172" y2="8.828" /><line clip-path="url(#border_clip)" stroke="#000000" stroke-linecap="round" stroke-width="1" x1="13.172" x2="18.828" y1="8.828" y2="8.828" /><line clip-path="url(#border_clip)" stroke="#000000" stroke-linecap="round" stroke-width="1" x1="18.828" x2="18.828" y1="8.828" y2="8.828" /><line clip-path="url(#border_clip)" stroke="#000000" stroke-linecap="round" stroke-width="1" x1="1.0" x2="1.0" y1="11.5" y2="11.5" /><line clip-path="url(#border_clip)" stroke="#000000" stroke-linecap="round" stroke-width="1" x1="1.0" x2="11.0" y1="11.5" y2="11.5" /><line clip-path="url(#border_clip)" stroke="#000000" stroke-linecap="round" stroke-width="1" x1="11.0" x2="11.0" y1="11.5" y2="21.5" /><line clip-path="url(#border_clip)" stroke="#000000" stroke-linecap="round" stroke-width="1" x1="11.0" x2="1.0" y1="21.5" y2="21.5" /><line clip-path="url(#border_clip)" stroke="#000000" stroke-linecap="round" stroke-width="1" x1="1.0" x2="1.0" y1="21.5" y2="11.5" /><polygon clip-path="url(#border_clip)" fill="#a6cee3" fill-rule="evenodd" points="1.0,11.5 11.0,11.5 11.0,21.5 1.0,21.5 1.0,11.5" /><line clip-path="url(#border_clip)" stroke="#000000" stroke-linecap="round" stroke-width="1" x1="1.0" x2="11.0" y1="11.5" y2="11.5" /><line clip-path="url(#border_clip)" stroke="#000000" stroke-linecap="round" stroke-width="1" x1="11.0" x2="11.0" y1="11.5" y2="21.5" /><line clip-path="url(#border_clip)" stroke="#000000" stroke-linecap="round" stroke-width="1" x1="11.0" x2="1.0" y1="21.5" y2="21.5" /><line clip-path="url(#border_clip)" stroke="#000000" stroke-linecap="round" stroke-width="1" x1="1.0" x2="1.0" y1="21.5" y2="11.5" /><line clip-path="url(#border_clip)" stroke="#000000" stroke-linecap="round" stroke-width="1" x1="1.0" x2="1.0" y1="11.5" y2="11.5" /><line clip-path="url(#border_clip)" stroke="#000000" stroke-linecap="round" stroke-width="1" x1="11.0" x2="11.0" y1="11.5" y2="11.5" /><line clip-path="url(#border_clip)" stroke="#000000" stroke-linecap="round" stroke-width="1" x1="11.0" x2="21.0" y1="11.5" y2="11.5" /><line clip-path="url(#border_clip)" stroke="#000000" stroke-linecap="round" stroke-width="1" x1="21.0" x2="21.0" y1="11.5" y2="21.5" /><line clip-path="url(#border_clip)" stroke="#000000" stroke-linecap="round" stroke-width="1" x1="21.0" x2="11.0" y1="21.5" y2="21.5" /><line clip-path="url(#border_clip)" stroke="#000000" stroke-linecap="round" stroke-width="1" x1="11.0" x2="11.0" y1="21.5" y2="11.5" /><polygon clip-path="url(#border_clip)" fill="#b2df8a" fill-rule="evenodd" points="11.0,11.5 21.0,11.5 21.0,21.5 11.0,21.5 11.0,11.5" /><line clip-path="url(#border_clip)" stroke="#000000" stroke-linecap="round" stroke-width="1" x1="11.0" x2="21.0" y1="11.5" y2="11.5" /><line clip-path="url(#border_clip)" stroke="#000000" stroke-linecap="round" stroke-width="1" x1="21.0" x2="21.0" y1="11.5" y2="21.5" /><line clip-path="url(#border_clip)" stroke="#000000" stroke-linecap="round" stroke-width="1" x1="21.0" x2="11.0" y1="21.5" y2="21.5" /><line clip-path="url(#border_clip)" stroke="#000000" stroke-linecap="round" stroke-width="1" x1="11.0" x2="11.0" y1="21.5" y2="11.5" /><line clip-path="url(#border_clip)" stroke="#000000" stroke-linecap="round" stroke-width="1" x1="11.0" x2="11.0" y1="11.5" y2="11.5" /><line clip-path="url(#border_clip)" stroke="#000000" stroke-linecap="round" stroke-width="1" x1="21.0" x2="21.0" y1="11.5" y2="11.5" /><line clip-path="url(#border_clip)" stroke="#000000" stroke-linecap="round" stroke-width="1" x1="21.0" x2="31.0" y1="11.5" y2="11.5" /><line clip-path="url(#border_clip)" stroke="#000000" stroke-linecap="round" stroke-width="1" x1="31.0" x2="31.0" y1="11.5" y2="21.5" /><line clip-path="url(#border_clip)" stroke="#000000" stroke-linecap="round" stroke-width="1" x1="31.0" x2="21.0" y1="21.5" y2="21.5" /><line clip-path="url(#border_clip)" stroke="#000000" stroke-linecap="round" stroke-width="1" x1="21.0" x2="21.0" y1="21.5" y2="11.5" /><polygon clip-path="url(#border_clip)" fill="#fb9a99" fill-rule="evenodd" points="21.0,11.5 31.0,11.5 31.0,21.5 21.0,21.5 21.0,11.5" /><line clip-path="url(#border_clip)" stroke="#000000" stroke-linecap="round" stroke-width="1" x1="21.0" x2="31.0" y1="11.5" y2="11.5" /><line clip-path="url(#border_clip)" stroke="#000000" stroke-linecap="round" stroke-width="1" x1="31.0" x2="31.0" y1="11.5" y2="21.5" /><line clip-path="url(#border_clip)" stroke="#000000" stroke-linecap="round" stroke-width="1" x1="31.0" x2="21.0" y1="21.5" y2="21.5" /><line clip-path="url(#border_clip)" stroke="#000000" stroke-linecap="round" stroke-width="1" x1="21.0" x2="21.0" y1="21.5" y2="11.5" /><line clip-path="url(#border_clip)" stroke="#000000" stroke-linecap="round" stroke-width="1" x1="21.0" x2="21.0" y1="11.5" y2="11.5" /><line clip-path="url(#border_clip)" stroke="#000000" stroke-linecap="round" stroke-width="1" x1="8.0" x2="8.0" y1="19.964" y2="19.964" /><line clip-path="url(#border_clip)" stroke="#000000" stroke-linecap="round" stroke-width="1" x1="8.0" x2="10.0" y1="19.964" y2="16.5" /><line clip-path="url(#border_clip)" stroke="#000000" stroke-linecap="round" stroke-width="1" x1="10.0" x2="8.0" y1="16.5" y2="13.036" /><line clip-path="url(#border_clip)" stroke="#000000" stroke-linecap="round" stroke-width="1" x1="8.0" x2="4.0" y1="13.036" y2="13.036" /><line clip-path="url(#border_clip)" stroke="#000000" stroke-linecap="round" stroke-width="1" x1="4.0" x2="2.0" y1="13.036" y2="16.5" /><line clip-path="url(#border_clip)" stroke="#000000" stroke-linecap="round" stroke-width="1" x1="2.0" x2="4.0" y1="16.5" y2="19.964" /><line clip-path="url(#border_clip)" stroke="#000000" stroke-linecap="round" stroke-width="1" x1="4.0" x2="8.0" y1="19.964" y2="19.964" /><polygon clip-path="url(#border_clip)" fill="#1f78b4" fill-rule="evenodd" points="8.0,19.964 10.0,16.5 8.0,13.036 4.0,13.036 2.0,16.5 4.0,19.964 8.0,19.964" /><line clip-path="url(#border_clip)" stroke="#000000" stroke-linecap="round" stroke-width="1" x1="8.0" x2="10.0" y1="19.964" y2="16.5" /><line clip-path="url(#border_clip)" stroke="#000000" stroke-linecap="round" stroke-width="1" x1="10.0" x2="8.0" y1="16.5" y2="13.036" /><line clip-path="url(#border_clip)" stroke="#000000" stroke-linecap="round" stroke-width="1" x1="8.0" x2="4.0" y1="13.036" y2="13.036" /><line clip-path="url(#border_clip)" stroke="#000000" stroke-linecap="round" stroke-width="1" x1="4.0" x2="2.0" y1="13.036" y2="16.5" /><line clip-path="url(#border_clip)" stroke="#000000" stroke-linecap="round" stroke-width="1" x1="2.0" x2="4.0" y1="16.5" y2="19.964" /><line clip-path="url(#border_clip)" stroke="#000000" stroke-linecap="round" stroke-width="1" x1="4.0" x2="8.0" y1="19.964" y2="19.964" /><line clip-path="url(#border_clip)" stroke="#000000" stroke-linecap="round" stroke-width="1" x1="8.0" x2="8.0" y1="19.964" y2="19.964" /><line clip-path="url(#border_clip)" stroke="#000000" stroke-linecap="round" stroke-width="1" x1="18.828" x2="18.828" y1="19.328" y2="19.328" /><line clip-path="url(#border_clip)" stroke="#000000" stroke-linecap="round" stroke-width="1" x1="18.828" x2="18.828" y1="19.328" y2="13.672" /><line clip-path="url(#border_clip)" stroke="#000000" stroke-linecap="round" stroke-width="1" x1="18.828" x2="13.172" y1="13.672" y2="13.672" /><line clip-path="url(#border_clip)" stroke="#000000" stroke-linecap="round" stroke-width="1" x1="13.172" x2="13.172" y1="13.672" y2="19.328" /><line clip-path="url(#border_clip)" stroke="#000000" stroke-linecap="round" stroke-width="1" x1="13.172" x2="18.828" y1="19.328" y2="19.328" /><polygon clip-path="url(#border_clip)" fill="#33a02c" fill-rule="evenodd" points="18.828,19.328 18.828,13.672 13.172,13.672 13.172,19.328 18.828,19.328" /><line clip-path="url(#border_clip)" stroke="#000000" stroke-linecap="round" stroke-width="1" x1="18.828" x2="18.828" y1="19.328" y2="13.672" /><line clip-path="url(#border_clip)" stroke="#000000" stroke-linecap="round" stroke-width="1" x1="18.828" x2="13.172" y1="13.672" y2="13.672" /><line clip-path="url(#border_clip)" stroke="#000000" stroke-linecap="round" stroke-width="1" x1="13.172" x2="13.172" y1="13.672" y2="19.328" /><line clip-path="url(#border_clip)" stroke="#000000" stroke-linecap="round" stroke-width="1" x1="13.172" x2="18.828" y1="19.328" y2="19.328" /><line clip-path="url(#border_clip)" stroke="#000000" stroke-linecap="round" stroke-width="1" x1="18.828" x2="18.828" y1="19.328" y2="19.328" /><line clip-path="url(#border_clip)" stroke="#000000" stroke-linecap="round" stroke-width="1" x1="28.0" x2="28.0" y1="19.964" y2="19.964" /><line clip-path="url(#border_clip)" stroke="#000000" stroke-linecap="round" stroke-width="1" x1="28.0" x2="30.0" y1="19.964" y2="16.5" /><line clip-path="url(#border_clip)" stroke="#000000" stroke-linecap="round" stroke-width="1" x1="30.0" x2="28.0" y1="16.5" y2="13.036" /><line clip-path="url(#border_clip)" stroke="#000000" stroke-linecap="round" stroke-width="1" x1="28.0" x2="24.0" y1="13.036" y2="13.036" /><line clip-path="url(#border_clip)" stroke="#000000" stroke-linecap="round" stroke-width="1" x1="24.0" x2="22.0" y1="13.036" y2="16.5" /><line clip-path="url(#border_clip)" stroke="#000000" stroke-linecap="round" stroke-width="1" x1="22.0" x2="24.0" y1="16.5" y2="19.964" /><line clip-path="url(#border_clip)" stroke="#000000" stroke-linecap="round" stroke-width="1" x1="24.0" x2="28.0" y1="19.964" y2="19.964" /><polygon clip-path="url(#border_clip)" fill="#e31a1c" fill-rule="evenodd" points="28.0,19.964 30.0,16.5 28.0,13.036 24.0,13.036 22.0,16.5 24.0,19.964 28.0,19.964" /><line clip-path="url(#border_clip)" stroke="#000000" stroke-linecap="round" stroke-width="1" x1="28.0" x2="30.0" y1="19.964" y2="16.5" /><line clip-path="url(#border_clip)" stroke="#000000" stroke-linecap="round" stroke-width="1" x1="30.0" x2="28.0" y1="16.5" y2="13.036" /><line clip-path="url(#border_clip)" stroke="#000000" stroke-linecap="round" stroke-width="1" x1="28.0" x2="24.0" y1="13.036" y2="13.036" /><line clip-path="url(#border_clip)" stroke="#000000" stroke-linecap="round" stroke-width="1" x1="24.0" x2="22.0" y1="13.036" y2="16.5" /><line clip-path="url(#border_clip)" stroke="#000000" stroke-linecap="round" stroke-width="1" x1="22.0" x2="24.0" y1="16.5" y2="19.964" /><line clip-path="url(#border_clip)" stroke="#000000" stroke-linecap="round" stroke-width="1" x1="24.0" x2="28.0" y1="19.964" y2="19.964" /><line clip-path="url(#border_clip)" stroke="#000000" stroke-linecap="round" stroke-width="1" x1="28.0" x2="28.0" y1="19.964" y2="19.964" /><line clip-path="url(#border_clip)" stroke="#000000" stroke-linecap="round" stroke-width="1" x1="1.0" x2="1.0" y1="22.0" y2="22.0" /><line clip-path="url(#border_clip)" stroke="#000000" stroke-linecap="round" stroke-width="1" x1="1.0" x2="11.0" y1="22.0" y2="22.0" /><line clip-path="url(#border_clip)" stroke="#000000" stroke-linecap="round" stroke-width="1" x1="11.0" x2="11.0" y1="22.0" y2="32.0" /><line clip-path="url(#border_clip)" stroke="#000000" stroke-linecap="round" stroke-width="1" x1="11.0" x2="1.0" y1="32.0" y2="32.0" /><line clip-path="url(#border_clip)" stroke="#000000" stroke-linecap="round" stroke-width="1" x1="1.0" x2="1.0" y1="32.0" y2="22.0" /><polygon clip-path="url(#border_clip)" fill="#a6cee3" fill-rule="evenodd" points="1.0,22.0 11.0,22.0 11.0,32.0 1.0,32.0 1.0,22.0" /><line clip-path="url(#border_clip)" stroke="#000000" stroke-linecap="round" stroke-width="1" x1="1.0" x2="11.0" y1="22.0" y2="22.0" /><line clip-path="url(#border_clip)" stroke="#000000" stroke-linecap="round" stroke-width="1" x1="11.0" x2="11.0" y1="22.0" y2="32.0" /><line clip-path="url(#border_clip)" stroke="#000000" stroke-linecap="round" stroke-width="1" x1="11.0" x2="1.0" y1="32.0" y2="32.0" /><line clip-path="url(#border_clip)" stroke="#000000" stroke-linecap="round" stroke-width="1" x1="1.0" x2="1.0" y1="32.0" y2="22.0" /><line clip-path="url(#border_clip)" stroke="#000000" stroke-linecap="round" stroke-width="1" x1="1.0" x2="1.0" y1="22.0" y2="22.0" /><line clip-path="url(#border_clip)" stroke="#000000" stroke-linecap="round" stroke-width="1" x1="11.0" x2="11.0" y1="22.0" y2="22.0" /><line clip-path="url(#border_clip)" stroke="#000000" stroke-linecap="round" stroke-width="1" x1="11.0" x2="21.0" y1="22.0" y2="22.0" /><line clip-path="url(#border_clip)" stroke="#000000" stroke-linecap="round" stroke-width="1" x1="21.0" x2="21.0" y1="22.0" y2="32.0" /><line clip-path="url(#border_clip)" stroke="#000000" stroke-linecap="round" stroke-width="1" x1="21.0" x2="11.0" y1="32.0" y2="32.0" /><line clip-path="url(#border_clip)" stroke="#000000" stroke-linecap="round" stroke-width="1" x1="11.0" x2="11.0" y1="32.0" y2="22.0" /><polygon clip-path="url(#border_clip)" fill="#fb9a99" fill-rule="evenodd" points="11.0,22.0 21.0,22.0 21.0,32.0 11.0,32.0 11.0,22.0" /><line clip-path="url(#border_clip)" stroke="#000000" stroke-linecap="round" stroke-width="1" x1="11.0" x2="21.0" y1="22.0" y2="22.0" /><line clip-path="url(#border_clip)" stroke="#000000" stroke-linecap="round" stroke-width="1" x1="21.0" x2="21.0" y1="22.0" y2="32.0" /><line clip-path="url(#border_clip)" stroke="#000000" stroke-linecap="round" stroke-width="1" x1="21.0" x2="11.0" y1="32.0" y2="32.0" /><line clip-path="url(#border_clip)" stroke="#000000" stroke-linecap="round" stroke-width="1" x1="11.0" x2="11.0" y1="32.0" y2="22.0" /><line clip-path="url(#border_clip)" stroke="#000000" stroke-linecap="round" stroke-width="1" x1="11.0" x2="11.0" y1="22.0" y2="22.0" /><line clip-path="url(#border_clip)" stroke="#000000" stroke-linecap="round" stroke-width="1" x1="21.0" x2="21.0" y1="22.0" y2="22.0" /><line clip-path="url(#border_clip)" stroke="#000000" stroke-linecap="round" stroke-width="1" x1="21.0" x2="31.0" y1="22.0" y2="22.0" /><line clip-path="url(#border_clip)" stroke="#000000" stroke-linecap="round" stroke-width="1" x1="31.0" x2="31.0" y1="22.0" y2="32.0" /><line clip-path="url(#border_clip)" stroke="#000000" stroke-linecap="round" stroke-width="1" x1="31.0" x2="21.0" y1="32.0" y2="32.0" /><line clip-path="url(#border_clip)" stroke="#000000" stroke-linecap="round" stroke-width="1" x1="21.0" x2="21.0" y1="32.0" y2="22.0" /><polygon clip-path="url(#border_clip)" fill="#b2df8a" fill-rule="evenodd" points="21.0,22.0 31.0,22.0 31.0,32.0 21.0,32.0 21.0,22.0" /><line clip-path="url(#border_clip)" stroke="#000000" stroke-linecap="round" stroke-width="1" x1="21.0" x2="31.0" y1="22.0" y2="22.0" /><line clip-path="url(#border_clip)" stroke="#000000" stroke-linecap="round" stroke-width="1" x1="31.0" x2="31.0" y1="22.0" y2="32.0" /><line clip-path="url(#border_clip)" stroke="#000000" stroke-linecap="round" stroke-width="1" x1="31.0" x2="21.0" y1="32.0" y2="32.0" /><line clip-path="url(#border_clip)" stroke="#000000" stroke-linecap="round" stroke-width="1" x1="21.0" x2="21.0" y1="32.0" y2="22.0" /><line clip-path="url(#border_clip)" stroke="#000000" stroke-linecap="round" stroke-width="1" x1="21.0" x2="21.0" y1="22.0" y2="22.0" /><line clip-path="url(#border_clip)" stroke="#000000" stroke-linecap="round" stroke-width="1" x1="18.828" x2="18.828" y1="29.828" y2="29.828" /><line clip-path="url(#border_clip)" stroke="#000000" stroke-linecap="round" stroke-width="1" x1="18.828" x2="18.828" y1="29.828" y2="24.172" /><line clip-path="url(#border_clip)" stroke="#000000" stroke-linecap="round" stroke-width="1" x1="18.828" x2="13.172" y1="24.172" y2="24.172" /><line clip-path="url(#border_clip)" stroke="#000000" stroke-linecap="round" stroke-width="1" x1="13.172" x2="13.172" y1="24.172" y2="29.828" /><line clip-path="url(#border_clip)" stroke="#000000" stroke-linecap="round" stroke-width="1" x1="13.172" x2="18.828" y1="29.828" y2="29.828" /><polygon clip-path="url(#border_clip)" fill="#e31a1c" fill-rule="evenodd" points="18.828,29.828 18.828,24.172 13.172,24.172 13.172,29.828 18.828,29.828" /><line clip-path="url(#border_clip)" stroke="#000000" stroke-linecap="round" stroke-width="1" x1="18.828" x2="18.828" y1="29.828" y2="24.172" /><line clip-path="url(#border_clip)" stroke="#000000" stroke-linecap="round" stroke-width="1" x1="18.828" x2="13.172" y1="24.172" y2="24.172" /><line clip-path="url(#border_clip)" stroke="#000000" stroke-linecap="round" stroke-width="1" x1="13.172" x2="13.172" y1="24.172" y2="29.828" /><line clip-path="url(#border_clip)" stroke="#000000" stroke-linecap="round" stroke-width="1" x1="13.172" x2="18.828" y1="29.828" y2="29.828" /><line clip-path="url(#border_clip)" stroke="#000000" stroke-linecap="round" stroke-width="1" x1="18.828" x2="18.828" y1="29.828" y2="29.828" /></svg>