<?xml version="1.0" encoding="utf-8" ?>
<svg baseProfile="full" height="300px" version="1.1" width="100px" xmlns="http://www.w3.org/2000/svg" xmlns:ev="http://www.w3.org/2001/xml-events" xmlns:xlink="http://www.w3.org/1999/xlink"><defs><clipPath id="border_clip"><rect height="300" width="100" x="0" y="0" /></clipPath></defs><line clip-path="url(#border_clip)" stroke="#000000" stroke-linecap="round" stroke-width="1" x1="97.5" x2="97.5" y1="7.5" y2="7.5" /><line clip-path="url(#border_clip)" stroke="#000000" stroke-linecap="round" stroke-width="2" x1="97.5" x2="97.5" y1="7.5" y2="102.5" /><line clip-path="url(#border_clip)" stroke="#000000" stroke-linecap="round" stroke-width="2" x1="97.5" x2="2.5" y1="102.5" y2="102.5" /><line clip-path="url(#border_clip)" stroke="#000000" stroke-linecap="round" stroke-width="2" x1="2.5" x2="2.5" y1="102.5" y2="7.5" /><line clip-path="url(#border_clip)" stroke="#000000" stroke-linecap="round" stroke-width="2" x1="2.5" x2="97.5" y1="7.5" y2="7.5" /><polygon clip-path="url(#border_clip)" fill="#b2df8a" fill-rule="evenodd" points="97.5,7.5 97.5,102.5 2.5,102.5 2.5,7.5 97.5,7.5" /><line clip-path="url(#border_clip)" stroke="#000000" stroke-linecap="round" stroke-width="2" x1="97.5" x2="97.5" y1="7.5" y2="102.5" /><line clip-path="url(#border_clip)" stroke="#000000" stroke-linecap="round" stroke-width="2" x1="97.5" x2="2.5" y1="102.5" y2="102.5" /><line clip-path="url(#border_clip)" stroke="#000000" stroke-linecap="round" stroke-width="2" x1="2.5" x2="2.5" y1="102.5" y2="7.5" /><line clip-path="url(#border_clip)" stroke="#000000" stroke-linecap="round" stroke-width="2" x1="2.5" x2="97.5" y1="7.5" y2="7.5" /><line clip-path="url(#border_clip)" stroke="#000000" stroke-linecap="round" stroke-width="1" x1="97.5" x2="97.5" y1="7.5" y2="7.5" /><line clip-path="url(#border_clip)" stroke="#000000" stroke-linecap="round" stroke-width="1" x1="97.5" x2="97.5" y1="102.5" y2="102.5" /><line clip-path="url(#border_clip)" stroke="#000000" stroke-linecap="round" stroke-width="2" x1="97.5" x2="97.5" y1="102.5" y2="197.5" /><line clip-path="url(#border_clip)" stroke="#000000" stroke-linecap="round" stroke-width="2" x1="97.5" x2="2.5" y1="197.5" y2="197.5" /><line clip-path="url(#border_clip)" stroke="#000000" stroke-linecap="round" stroke-width="2" x1="2.5" x2="2.5" y1="197.5" y2="102.5" /><line clip-path="url(#border_clip)" stroke="#000000" stroke-linecap="round" stroke-width="2" x1="2.5" x2="97.5" y1="102.5" y2="102.5" /><polygon clip-path="url(#border_clip)" fill="#a6cee3" fill-rule="evenodd" points="97.5,102.5 97.5,197.5 2.5,197.5 2.5,102.5 97.5,102.5" /><line clip-path="url(#border_clip)" stroke="#000000" stroke-linecap="round" stroke-width="2" x1="97.5" x2="97.5" y1="102.5" y2="197.5" /><line clip-path="url(#border_clip)" stroke="#000000" stroke-linecap="round" stroke-width="2" x1="97.5" x2="2.5" y1="197.5" y2="197.5" /><line clip-path="url(#border_clip)" stroke="#000000" stroke-linecap="round" stroke-width="2" x1="2.5" x2="2.5" y1="197.5" y2="102.5" /><line clip-path="url(#border_clip)" stroke="#000000" stroke-linecap="round" stroke-width="2" x1="2.5" x2="97.5" y1="102.5" y2="102.5" /><line clip-path="url(#border_clip)" stroke="#000000" stroke-linecap="round" stroke-width="1" x1="97.5" x2="97.5" y1="102.5" y2="102.5" /><line clip-path="url(#border_clip)" stroke="#000000" stroke-linecap="round" stroke-width="1" x1="97.5" x2="97.5" y1="197.5" y2="197.5" /><line clip-path="url(#border_clip)" stroke="#000000" stroke-linecap="round" stroke-width="2" x1="97.5" x2="97.5" y1="197.5" y2="292.5" /><line clip-path="url(#border_clip)" stroke="#000000" stroke-linecap="round" stroke-width="2" x1="97.5" x2="2.5" y1="292.5" y2="292.5" /><line clip-path="url(#border_clip)" stroke="#000000" stroke-linecap="round" stroke-width="2" x1="2.5" x2="2.5" y1="292.5" y2="197.5" /><line clip-path="url(#border_clip)" stroke="#000000" stroke-linecap="round" stroke-width="2" x1="2.5" x2="97.5" y1="197.5" y2="197.5" /><polygon clip-path="url(#border_clip)" fill="#fb9a99" fill-rule="evenodd" points="97.5,197.5 97.5,292.5 2.5,292.5 2.5,197.5 97.5,197.5" /><line clip-path="url(#border_clip)" stroke="#000000" stroke-linecap="round" stroke-width="2" x1="97.5" x2="97.5" y1="197.5" y2="292.5" /><line clip-path="url(#border_clip)" stroke="#000000" stroke-linecap="round" stroke-width="2" x1="97.5" x2="2.5" y1="292.5" y2="292.5" /><line clip-path="url(#border_clip)" stroke="#000000" stroke-linecap="round" stroke-width="2" x1="2.5" x2="2.5" y1="292.5" y2="197.5" /><line clip-path="url(#border_clip)" stroke="#000000" stroke-linecap="round" stroke-width="2" x1="2.5" x2="97.5" y1="197.5" y2="197.5" /><line clip-path="url(#border_clip)" stroke="#000000" stroke-linecap="round" stroke-width="1" x1="97.5" x2="97.5" y1="197.5" y2="197.5" /></svg>