<?xml version="1.0" encoding="utf-8" ?>
<svg baseProfile="full" height="64px" version="1.1" width="64px" xmlns="http://www.w3.org/2000/svg" xmlns:ev="http://www.w3.org/2001/xml-events" xmlns:xlink="http://www.w3.org/1999/xlink"><defs><clipPath id="border_clip"><rect height="64" width="64" x="0" y="0" /></clipPath></defs><line clip-path="url(#border_clip)" stroke="#000000" stroke-linecap="round" stroke-width="1" x1="32.0" x2="32.0" y1="1.0" y2="1.0" /><line clip-path="url(#border_clip)" stroke="#000000" stroke-linecap="round" stroke-width="2" x1="32.0" x2="43.198" y1="1.0" y2="3.093" /><line clip-path="url(#border_clip)" stroke="#000000" stroke-linecap="round" stroke-width="2" x1="43.198" x2="52.885" y1="3.093" y2="9.091" /><line clip-path="url(#border_clip)" stroke="#000000" stroke-linecap="round" stroke-width="2" x1="52.885" x2="59.75" y1="9.091" y2="18.182" /><line clip-path="url(#border_clip)" stroke="#000000" stroke-linecap="round" stroke-width="2" x1="59.75" x2="62.868" y1="18.182" y2="29.14" /><line clip-path="url(#border_clip)" stroke="#000000" stroke-linecap="round" stroke-width="2" x1="62.868" x2="61.817" y1="29.14" y2="40.484" /><line clip-path="url(#border_clip)" stroke="#000000" stroke-linecap="round" stroke-width="2" x1="61.817" x2="56.739" y1="40.484" y2="50.682" /><line clip-path="url(#border_clip)" stroke="#000000" stroke-linecap="round" stroke-width="2" x1="56.739" x2="48.319" y1="50.682" y2="58.357" /><line clip-path="url(#border_clip)" stroke="#000000" stroke-linecap="round" stroke-width="2" x1="48.319" x2="37.696" y1="58.357" y2="62.472" /><line clip-path="url(#border_clip)" stroke="#000000" stroke-linecap="round" stroke-width="2" x1="37.696" x2="26.304" y1="62.472" y2="62.472" /><line clip-path="url(#border_clip)" stroke="#000000" stroke-linecap="round" stroke-width="2" x1="26.304" x2="15.681" y1="62.472" y2="58.357" /><line clip-path="url(#border_clip)" stroke="#000000" stroke-linecap="round" stroke-width="2" x1="15.681" x2="7.261" y1="58.357" y2="50.682" /><line clip-path="url(#border_clip)" stroke="#000000" stroke-linecap="round" stroke-width="2" x1="7.261" x2="2.183" y1="50.682" y2="40.484" /><line clip-path="url(#border_clip)" stroke="#000000" stroke-linecap="round" stroke-width="2" x1="2.183" x2="1.132" y1="40.484" y2="29.14" /><line clip-path="url(#border_clip)" stroke="#000000" stroke-linecap="round" stroke-width="2" x1="1.132" x2="4.25" y1="29.14" y2="18.182" /><line clip-path="url(#border_clip)" stroke="#000000" stroke-linecap="round" stroke-width="2" x1="4.25" x2="11.115" y1="18.182" y2="9.091" /><line clip-path="url(#border_clip)" stroke="#000000" stroke-linecap="round" stroke-width="2" x1="11.115" x2="20.802" y1="9.091" y2="3.093" /><line clip-path="url(#border_clip)" stroke="#000000" stroke-linecap="round" stroke-width="2" x1="20.802" x2="32.0" y1="3.093" y2="1.0" /><polygon clip-path="url(#border_clip)" fill="#d2b48c" fill-rule="evenodd" points="32.0,1.0 43.198,3.093 52.885,9.091 59.75,18.182 62.868,29.14 61.817,40.484 56.739,50.682 48.319,58.357 37.696,62.472 26.304,62.472 15.681,58.357 7.261,50.682 2.183,40.484 1.132,29.14 4.25,18.182 11.115,9.091 20.802,3.093 32.0,1.0" /><line clip-path="url(#border_clip)" stroke="#000000" stroke-linecap="round" stroke-width="2" x1="32.0" x2="43.198" y1="1.0" y2="3.093" /><line clip-path="url(#border_clip)" stroke="#000000" stroke-linecap="round" stroke-width="2" x1="43.198" x2="52.885" y1="3.093" y2="9.091" /><line clip-path="url(#border_clip)" stroke="#000000" stroke-linecap="round" stroke-width="2" x1="52.885" x2="59.75" y1="9.091" y2="18.182" /><line clip-path="url(#border_clip)" stroke="#000000" stroke-linecap="round" stroke-width="2" x1="59.75" x2="62.868" y1="18.182" y2="29.14" /><line clip-path="url(#border_clip)" stroke="#000000" stroke-linecap="round" stroke-width="2" x1="62.868" x2="61.817" y1="29.14" y2="40.484" /><line clip-path="url(#border_clip)" stroke="#000000" stroke-linecap="round" stroke-width="2" x1="61.817" x2="56.739" y1="40.484" y2="50.682" /><line clip-path="url(#border_clip)" stroke="#000000" stroke-linecap="round" stroke-width="2" x1="56.739" x2="48.319" y1="50.682" y2="58.357" /><line clip-path="url(#border_clip)" stroke="#000000" stroke-linecap="round" stroke-width="2" x1="48.319" x2="37.696" y1="58.357" y2="62.472" /><line clip-path="url(#border_clip)" stroke="#000000" stroke-linecap="round" stroke-width="2" x1="37.696" x2="26.304" y1="62.472" y2="62.472" /><line clip-path="url(#border_clip)" stroke="#000000" stroke-linecap="round" stroke-width="2" x1="26.304" x2="15.681" y1="62.472" y2="58.357" /><line clip-path="url(#border_clip)" stroke="#000000" stroke-linecap="round" stroke-width="2" x1="15.681" x2="7.261" y1="58.357" y2="50.682" /><line clip-path="url(#border_clip)" stroke="#000000" stroke-linecap="round" stroke-width="2" x1="7.261" x2="2.183" y1="50.682" y2="40.484" /><line clip-path="url(#border_clip)" stroke="#000000" stroke-linecap="round" stroke-width="2" x1="2.183" x2="1.132" y1="40.484" y2="29.14" /><line clip-path="url(#border_clip)" stroke="#000000" stroke-linecap="round" stroke-width="2" x1="1.132" x2="4.25" y1="29.14" y2="18.182" /><line clip-path="url(#border_clip)" stroke="#000000" stroke-linecap="round" stroke-width="2" x1="4.25" x2="11.115" y1="18.182" y2="9.091" /><line clip-path="url(#border_clip)" stroke="#000000" stroke-linecap="round" stroke-width="2" x1="11.115" x2="20.802" y1="9.091" y2="3.093" /><line clip-path="url(#border_clip)" stroke="#000000" stroke-linecap="round" stroke-width="2" x1="20.802" x2="32.0" y1="3.093" y2="1.0" /><line clip-path="url(#border_clip)" stroke="#000000" stroke-linecap="round" stroke-width="1" x1="32.0" x2="32.0" y1="1.0" y2="1.0" /></svg>