<?xml version="1.0" encoding="utf-8" ?>
<svg baseProfile="full" height="64px" version="1.1" width="64px" xmlns="http://www.w3.org/2000/svg" xmlns:ev="http://www.w3.org/2001/xml-events" xmlns:xlink="http://www.w3.org/1999/xlink"><defs><clipPath id="border_clip"><rect height="64" width="64" x="0" y="0" /></clipPath></defs><line clip-path="url(#border_clip)" stroke="#000000" stroke-linecap="round" stroke-width="1" x1="16.5" x2="16.5" y1="16.5" y2="16.5" /><line clip-path="url(#border_clip)" stroke="#000000" stroke-linecap="round" stroke-width="1" x1="16.5" x2="47.5" y1="16.5" y2="16.5" /><line clip-path="url(#border_clip)" stroke="#000000" stroke-linecap="round" stroke-width="1" x1="47.5" x2="47.5" y1="16.5" y2="47.5" /><line clip-path="url(#border_clip)" stroke="#000000" stroke-linecap="round" stroke-width="1" x1="47.5" x2="16.5" y1="47.5" y2="47.5" /><line clip-path="url(#border_clip)" stroke="#000000" stroke-linecap="round" stroke-width="1" x1="16.5" x2="16.5" y1="47.5" y2="16.5" /><polygon clip-path="url(#border_clip)" fill="#d2691e" fill-rule="evenodd" points="16.5,16.5 47.5,16.5 47.5,47.5 16.5,47.5 16.5,16.5" /><line clip-path="url(#border_clip)" stroke="#000000" stroke-linecap="round" stroke-width="1" x1="16.5" x2="47.5" y1="16.5" y2="16.5" /><line clip-path="url(#border_clip)" stroke="#000000" stroke-linecap="round" stroke-width="1" x1="47.5" x2="47.5" y1="16.5" y2="47.5" /><line clip-path="url(#border_clip)" stroke="#000000" stroke-linecap="round" stroke-width="1" x1="47.5" x2="16.5" y1="47.5" y2="47.5" /><line clip-path="url(#border_clip)" stroke="#000000" stroke-linecap="round" stroke-width="1" x1="16.5" x2="16.5" y1="47.5" y2="16.5" /><line clip-path="url(#border_clip)" stroke="#000000" stroke-linecap="round" stroke-width="1" x1="16.5" x2="16.5" y1="16.5" y2="16.5" /><line clip-path="url(#border_clip)" stroke="#000000" stroke-linecap="round" stroke-width="1" x1="32.0" x2="32.0" y1="24.25" y2="24.25" /><line clip-path="url(#border_clip)" stroke="#000000" stroke-linecap="round" stroke-width="1" x1="32.0" x2="35.602" y1="24.25" y2="25.138" /><line clip-path="url(#border_clip)" stroke="#000000" stroke-linecap="round" stroke-width="1" x1="35.602" x2="38.378" y1="25.138" y2="27.597" /><line clip-path="url(#border_clip)" stroke="#000000" stroke-linecap="round" stroke-width="1" x1="38.378" x2="39.693" y1="27.597" y2="31.066" /><line clip-path="url(#border_clip)" stroke="#000000" stroke-linecap="round" stroke-width="1" x1="39.693" x2="39.246" y1="31.066" y2="34.748" /><line clip-path="url(#border_clip)" stroke="#000000" stroke-linecap="round" stroke-width="1" x1="39.246" x2="37.139" y1="34.748" y2="37.801" /><line clip-path="url(#border_clip)" stroke="#000000" stroke-linecap="round" stroke-width="1" x1="37.139" x2="33.855" y1="37.801" y2="39.525" /><line clip-path="url(#border_clip)" stroke="#000000" stroke-linecap="round" stroke-width="1" x1="33.855" x2="30.145" y1="39.525" y2="39.525" /><line clip-path="url(#border_clip)" stroke="#000000" stroke-linecap="round" stroke-width="1" x1="30.145" x2="26.861" y1="39.525" y2="37.801" /><line clip-path="url(#border_clip)" stroke="#000000" stroke-linecap="round" stroke-width="1" x1="26.861" x2="24.754" y1="37.801" y2="34.748" /><line clip-path="url(#border_clip)" stroke="#000000" stroke-linecap="round" stroke-width="1" x1="24.754" x2="24.307" y1="34.748" y2="31.066" /><line clip-path="url(#border_clip)" stroke="#000000" stroke-linecap="round" stroke-width="1" x1="24.307" x2="25.622" y1="31.066" y2="27.597" /><line clip-path="url(#border_clip)" stroke="#000000" stroke-linecap="round" stroke-width="1" x1="25.622" x2="28.398" y1="27.597" y2="25.138" /><line clip-path="url(#border_clip)" stroke="#000000" stroke-linecap="round" stroke-width="1" x1="28.398" x2="32.0" y1="25.138" y2="24.25" /><polygon clip-path="url(#border_clip)" fill="#000000" fill-rule="evenodd" points="32.0,24.25 35.602,25.138 38.378,27.597 39.693,31.066 39.246,34.748 37.139,37.801 33.855,39.525 30.145,39.525 26.861,37.801 24.754,34.748 24.307,31.066 25.622,27.597 28.398,25.138 32.0,24.25" /><line clip-path="url(#border_clip)" stroke="#000000" stroke-linecap="round" stroke-width="1" x1="32.0" x2="35.602" y1="24.25" y2="25.138" /><line clip-path="url(#border_clip)" stroke="#000000" stroke-linecap="round" stroke-width="1" x1="35.602" x2="38.378" y1="25.138" y2="27.597" /><line clip-path="url(#border_clip)" stroke="#000000" stroke-linecap="round" stroke-width="1" x1="38.378" x2="39.693" y1="27.597" y2="31.066" /><line clip-path="url(#border_clip)" stroke="#000000" stroke-linecap="round" stroke-width="1" x1="39.693" x2="39.246" y1="31.066" y2="34.748" /><line clip-path="url(#border_clip)" stroke="#000000" stroke-linecap="round" stroke-width="1" x1="39.246" x2="37.139" y1="34.748" y2="37.801" /><line clip-path="url(#border_clip)" stroke="#000000" stroke-linecap="round" stroke-width="1" x1="37.139" x2="33.855" y1="37.801" y2="39.525" /><line clip-path="url(#border_clip)" stroke="#000000" stroke-linecap="round" stroke-width="1" x1="33.855" x2="30.145" y1="39.525" y2="39.525" /><line clip-path="url(#border_clip)" stroke="#000000" stroke-linecap="round" stroke-width="1" x1="30.145" x2="26.861" y1="39.525" y2="37.801" /><line clip-path="url(#border_clip)" stroke="#000000" stroke-linecap="round" stroke-width="1" x1="26.861" x2="24.754" y1="37.801" y2="34.748" /><line clip-path="url(#border_clip)" stroke="#000000" stroke-linecap="round" stroke-width="1" x1="24.754" x2="24.307" y1="34.748" y2="31.066" /><line clip-path="url(#border_clip)" stroke="#000000" stroke-linecap="round" stroke-width="1" x1="24.307" x2="25.622" y1="31.066" y2="27.597" /><line clip-path="url(#border_clip)" stroke="#000000" stroke-linecap="round" stroke-width="1" x1="25.622" x2="28.398" y1="27.597" y2="25.138" /><line clip-path="url(#border_clip)" stroke="#000000" stroke-linecap="round" stroke-width="1" x1="28.398" x2="32.0" y1="25.138" y2="24.25" /><line clip-path="url(#border_clip)" stroke="#000000" stroke-linecap="round" stroke-width="1" x1="32.0" x2="32.0" y1="24.25" y2="24.25" /></svg>