<?xml version="1.0" encoding="utf-8" ?>
<svg baseProfile="full" height="64px" version="1.1" width="64px" xmlns="http://www.w3.org/2000/svg" xmlns:ev="http://www.w3.org/2001/xml-events" xmlns:xlink="http://www.w3.org/1999/xlink"><defs><clipPath id="border_clip"><rect height="64" width="64" x="0" y="0" /></clipPath></defs><line clip-path="url(#border_clip)" stroke="#000000" stroke-linecap="round" stroke-width="1" x1="32.0" x2="32.0" y1="16.5" y2="16.5" /><line clip-path="url(#border_clip)" stroke="#000000" stroke-linecap="round" stroke-width="1" x1="32.0" x2="38.725" y1="16.5" y2="18.035" /><line clip-path="url(#border_clip)" stroke="#000000" stroke-linecap="round" stroke-width="1" x1="38.725" x2="44.118" y1="18.035" y2="22.336" /><line clip-path="url(#border_clip)" stroke="#000000" stroke-linecap="round" stroke-width="1" x1="44.118" x2="47.111" y1="22.336" y2="28.551" /><line clip-path="url(#border_clip)" stroke="#000000" stroke-linecap="round" stroke-width="1" x1="47.111" x2="47.111" y1="28.551" y2="35.449" /><line clip-path="url(#border_clip)" stroke="#000000" stroke-linecap="round" stroke-width="1" x1="47.111" x2="44.118" y1="35.449" y2="41.664" /><line clip-path="url(#border_clip)" stroke="#000000" stroke-linecap="round" stroke-width="1" x1="44.118" x2="38.725" y1="41.664" y2="45.965" /><line clip-path="url(#border_clip)" stroke="#000000" stroke-linecap="round" stroke-width="1" x1="38.725" x2="32.0" y1="45.965" y2="47.5" /><line clip-path="url(#border_clip)" stroke="#000000" stroke-linecap="round" stroke-width="1" x1="32.0" x2="25.275" y1="47.5" y2="45.965" /><line clip-path="url(#border_clip)" stroke="#000000" stroke-linecap="round" stroke-width="1" x1="25.275" x2="19.882" y1="45.965" y2="41.664" /><line clip-path="url(#border_clip)" stroke="#000000" stroke-linecap="round" stroke-width="1" x1="19.882" x2="16.889" y1="41.664" y2="35.449" /><line clip-path="url(#border_clip)" stroke="#000000" stroke-linecap="round" stroke-width="1" x1="16.889" x2="16.889" y1="35.449" y2="28.551" /><line clip-path="url(#border_clip)" stroke="#000000" stroke-linecap="round" stroke-width="1" x1="16.889" x2="19.882" y1="28.551" y2="22.336" /><line clip-path="url(#border_clip)" stroke="#000000" stroke-linecap="round" stroke-width="1" x1="19.882" x2="25.275" y1="22.336" y2="18.035" /><line clip-path="url(#border_clip)" stroke="#000000" stroke-linecap="round" stroke-width="1" x1="25.275" x2="32.0" y1="18.035" y2="16.5" /><polygon clip-path="url(#border_clip)" fill="#d2b48c" fill-rule="evenodd" points="32.0,16.5 38.725,18.035 44.118,22.336 47.111,28.551 47.111,35.449 44.118,41.664 38.725,45.965 32.0,47.5 25.275,45.965 19.882,41.664 16.889,35.449 16.889,28.551 19.882,22.336 25.275,18.035 32.0,16.5" /><line clip-path="url(#border_clip)" stroke="#000000" stroke-linecap="round" stroke-width="1" x1="32.0" x2="38.725" y1="16.5" y2="18.035" /><line clip-path="url(#border_clip)" stroke="#000000" stroke-linecap="round" stroke-width="1" x1="38.725" x2="44.118" y1="18.035" y2="22.336" /><line clip-path="url(#border_clip)" stroke="#000000" stroke-linecap="round" stroke-width="1" x1="44.118" x2="47.111" y1="22.336" y2="28.551" /><line clip-path="url(#border_clip)" stroke="#000000" stroke-linecap="round" stroke-width="1" x1="47.111" x2="47.111" y1="28.551" y2="35.449" /><line clip-path="url(#border_clip)" stroke="#000000" stroke-linecap="round" stroke-width="1" x1="47.111" x2="44.118" y1="35.449" y2="41.664" /><line clip-path="url(#border_clip)" stroke="#000000" stroke-linecap="round" stroke-width="1" x1="44.118" x2="38.725" y1="41.664" y2="45.965" /><line clip-path="url(#border_clip)" stroke="#000000" stroke-linecap="round" stroke-width="1" x1="38.725" x2="32.0" y1="45.965" y2="47.5" /><line clip-path="url(#border_clip)" stroke="#000000" stroke-linecap="round" stroke-width="1" x1="32.0" x2="25.275" y1="47.5" y2="45.965" /><line clip-path="url(#border_clip)" stroke="#000000" stroke-linecap="round" stroke-width="1" x1="25.275" x2="19.882" y1="45.965" y2="41.664" /><line clip-path="url(#border_clip)" stroke="#000000" stroke-linecap="round" stroke-width="1" x1="19.882" x2="16.889" y1="41.664" y2="35.449" /><line clip-path="url(#border_clip)" stroke="#000000" stroke-linecap="round" stroke-width="1" x1="16.889" x2="16.889" y1="35.449" y2="28.551" /><line clip-path="url(#border_clip)" stroke="#000000" stroke-linecap="round" stroke-width="1" x1="16.889" x2="19.882" y1="28.551" y2="22.336" /><line clip-path="url(#border_clip)" stroke="#000000" stroke-linecap="round" stroke-width="1" x1="19.882" x2="25.275" y1="22.336" y2="18.035" /><line clip-path="url(#border_clip)" stroke="#000000" stroke-linecap="round" stroke-width="1" x1="25.275" x2="32.0" y1="18.035" y2="16.5" /><line clip-path="url(#border_clip)" stroke="#000000" stroke-linecap="round" stroke-width="1" x1="32.0" x2="32.0" y1="16.5" y2="16.5" /></svg>