<?xml version="1.0" encoding="utf-8" ?>
<svg baseProfile="full" height="32px" version="1.1" width="32px" xmlns="http://www.w3.org/2000/svg" xmlns:ev="http://www.w3.org/2001/xml-events" xmlns:xlink="http://www.w3.org/1999/xlink"><defs><clipPath id="border_clip"><rect height="32" width="32" x="0" y="0" /></clipPath></defs><line clip-path="url(#border_clip)" stroke="#000000" stroke-linecap="round" stroke-width="1" x1="1.0" x2="1.0" y1="1.0" y2="1.0" /><line clip-path="url(#border_clip)" stroke="#000000" stroke-linecap="round" stroke-width="1" x1="1.0" x2="15.286" y1="1.0" y2="1.0" /><line clip-path="url(#border_clip)" stroke="#000000" stroke-linecap="round" stroke-width="1" x1="15.286" x2="15.286" y1="1.0" y2="15.286" /><line clip-path="url(#border_clip)" stroke="#000000" stroke-linecap="round" stroke-width="1" x1="15.286" x2="1.0" y1="15.286" y2="15.286" /><line clip-path="url(#border_clip)" stroke="#000000" stroke-linecap="round" stroke-width="1" x1="1.0" x2="1.0" y1="15.286" y2="1.0" /><polygon clip-path="url(#border_clip)" fill="#d2691e" fill-rule="evenodd" points="1.0,1.0 15.286,1.0 15.286,15.286 1.0,15.286 1.0,1.0" /><line clip-path="url(#border_clip)" stroke="#000000" stroke-linecap="round" stroke-width="1" x1="1.0" x2="15.286" y1="1.0" y2="1.0" /><line clip-path="url(#border_clip)" stroke="#000000" stroke-linecap="round" stroke-width="1" x1="15.286" x2="15.286" y1="1.0" y2="15.286" /><line clip-path="url(#border_clip)" stroke="#000000" stroke-linecap="round" stroke-width="1" x1="15.286" x2="1.0" y1="15.286" y2="15.286" /><line clip-path="url(#border_clip)" stroke="#000000" stroke-linecap="round" stroke-width="1" x1="1.0" x2="1.0" y1="15.286" y2="1.0" /><line clip-path="url(#border_clip)" stroke="#000000" stroke-linecap="round" stroke-width="1" x1="1.0" x2="1.0" y1="1.0" y2="1.0" /><line clip-path="url(#border_clip)" stroke="#000000" stroke-linecap="round" stroke-width="1" x1="8.143" x2="8.143" y1="4.571" y2="4.571" /><line clip-path="url(#border_clip)" stroke="#000000" stroke-linecap="round" stroke-width="1" x1="8.143" x2="9.929" y1="4.571" y2="5.05" /><line clip-path="url(#border_clip)" stroke="#000000" stroke-linecap="round" stroke-width="1" x1="9.929" x2="11.236" y1="5.05" y2="6.357" /><line clip-path="url(#border_clip)" stroke="#000000" stroke-linecap="round" stroke-width="1" x1="11.236" x2="11.714" y1="6.357" y2="8.143" /><line clip-path="url(#border_clip)" stroke="#000000" stroke-linecap="round" stroke-width="1" x1="11.714" x2="11.236" y1="8.143" y2="9.929" /><line clip-path="url(#border_clip)" stroke="#000000" stroke-linecap="round" stroke-width="1" x1="11.236" x2="9.929" y1="9.929" y2="11.236" /><line clip-path="url(#border_clip)" stroke="#000000" stroke-linecap="round" stroke-width="1" x1="9.929" x2="8.143" y1="11.236" y2="11.714" /><line clip-path="url(#border_clip)" stroke="#000000" stroke-linecap="round" stroke-width="1" x1="8.143" x2="6.357" y1="11.714" y2="11.236" /><line clip-path="url(#border_clip)" stroke="#000000" stroke-linecap="round" stroke-width="1" x1="6.357" x2="5.05" y1="11.236" y2="9.929" /><line clip-path="url(#border_clip)" stroke="#000000" stroke-linecap="round" stroke-width="1" x1="5.05" x2="4.571" y1="9.929" y2="8.143" /><line clip-path="url(#border_clip)" stroke="#000000" stroke-linecap="round" stroke-width="1" x1="4.571" x2="5.05" y1="8.143" y2="6.357" /><line clip-path="url(#border_clip)" stroke="#000000" stroke-linecap="round" stroke-width="1" x1="5.05" x2="6.357" y1="6.357" y2="5.05" /><line clip-path="url(#border_clip)" stroke="#000000" stroke-linecap="round" stroke-width="1" x1="6.357" x2="8.143" y1="5.05" y2="4.571" /><polygon clip-path="url(#border_clip)" fill="#000000" fill-rule="evenodd" points="8.143,4.571 9.929,5.05 11.236,6.357 11.714,8.143 11.236,9.929 9.929,11.236 8.143,11.714 6.357,11.236 5.05,9.929 4.571,8.143 5.05,6.357 6.357,5.05 8.143,4.571" /><line clip-path="url(#border_clip)" stroke="#000000" stroke-linecap="round" stroke-width="1" x1="8.143" x2="9.929" y1="4.571" y2="5.05" /><line clip-path="url(#border_clip)" stroke="#000000" stroke-linecap="round" stroke-width="1" x1="9.929" x2="11.236" y1="5.05" y2="6.357" /><line clip-path="url(#border_clip)" stroke="#000000" stroke-linecap="round" stroke-width="1" x1="11.236" x2="11.714" y1="6.357" y2="8.143" /><line clip-path="url(#border_clip)" stroke="#000000" stroke-linecap="round" stroke-width="1" x1="11.714" x2="11.236" y1="8.143" y2="9.929" /><line clip-path="url(#border_clip)" stroke="#000000" stroke-linecap="round" stroke-width="1" x1="11.236" x2="9.929" y1="9.929" y2="11.236" /><line clip-path="url(#border_clip)" stroke="#000000" stroke-linecap="round" stroke-width="1" x1="9.929" x2="8.143" y1="11.236" y2="11.714" /><line clip-path="url(#border_clip)" stroke="#000000" stroke-linecap="round" stroke-width="1" x1="8.143" x2="6.357" y1="11.714" y2="11.236" /><line clip-path="url(#border_clip)" stroke="#000000" stroke-linecap="round" stroke-width="1" x1="6.357" x2="5.05" y1="11.236" y2="9.929" /><line clip-path="url(#border_clip)" stroke="#000000" stroke-linecap="round" stroke-width="1" x1="5.05" x2="4.571" y1="9.929" y2="8.143" /><line clip-path="url(#border_clip)" stroke="#000000" stroke-linecap="round" stroke-width="1" x1="4.571" x2="5.05" y1="8.143" y2="6.357" /><line clip-path="url(#border_clip)" stroke="#000000" stroke-linecap="round" stroke-width="1" x1="5.05" x2="6.357" y1="6.357" y2="5.05" /><line clip-path="url(#border_clip)" stroke="#000000" stroke-linecap="round" stroke-width="1" x1="6.357" x2="8.143" y1="5.05" y2="4.571" /><line clip-path="url(#border_clip)" stroke="#000000" stroke-linecap="round" stroke-width="1" x1="8.143" x2="8.143" y1="4.571" y2="4.571" /><line clip-path="url(#border_clip)" stroke="#000000" stroke-linecap="round" stroke-width="1" x1="23.143" x2="23.143" y1="1.0" y2="1.0" /><line clip-path="url(#border_clip)" stroke="#000000" stroke-linecap="round" stroke-width="1" x1="23.143" x2="26.462" y1="1.0" y2="1.818" /><line clip-path="url(#border_clip)" stroke="#000000" stroke-linecap="round" stroke-width="1" x1="26.462" x2="29.021" y1="1.818" y2="4.085" /><line clip-path="url(#border_clip)" stroke="#000000" stroke-linecap="round" stroke-width="1" x1="29.021" x2="30.234" y1="4.085" y2="7.282" /><line clip-path="url(#border_clip)" stroke="#000000" stroke-linecap="round" stroke-width="1" x1="30.234" x2="29.822" y1="7.282" y2="10.676" /><line clip-path="url(#border_clip)" stroke="#000000" stroke-linecap="round" stroke-width="1" x1="29.822" x2="27.879" y1="10.676" y2="13.489" /><line clip-path="url(#border_clip)" stroke="#000000" stroke-linecap="round" stroke-width="1" x1="27.879" x2="24.852" y1="13.489" y2="15.078" /><line clip-path="url(#border_clip)" stroke="#000000" stroke-linecap="round" stroke-width="1" x1="24.852" x2="21.433" y1="15.078" y2="15.078" /><line clip-path="url(#border_clip)" stroke="#000000" stroke-linecap="round" stroke-width="1" x1="21.433" x2="18.406" y1="15.078" y2="13.489" /><line clip-path="url(#border_clip)" stroke="#000000" stroke-linecap="round" stroke-width="1" x1="18.406" x2="16.464" y1="13.489" y2="10.676" /><line clip-path="url(#border_clip)" stroke="#000000" stroke-linecap="round" stroke-width="1" x1="16.464" x2="16.052" y1="10.676" y2="7.282" /><line clip-path="url(#border_clip)" stroke="#000000" stroke-linecap="round" stroke-width="1" x1="16.052" x2="17.264" y1="7.282" y2="4.085" /><line clip-path="url(#border_clip)" stroke="#000000" stroke-linecap="round" stroke-width="1" x1="17.264" x2="19.823" y1="4.085" y2="1.818" /><line clip-path="url(#border_clip)" stroke="#000000" stroke-linecap="round" stroke-width="1" x1="19.823" x2="23.143" y1="1.818" y2="1.0" /><polygon clip-path="url(#border_clip)" fill="#d2b48c" fill-rule="evenodd" points="23.143,1.0 26.462,1.818 29.021,4.085 30.234,7.282 29.822,10.676 27.879,13.489 24.852,15.078 21.433,15.078 18.406,13.489 16.464,10.676 16.052,7.282 17.264,4.085 19.823,1.818 23.143,1.0" /><line clip-path="url(#border_clip)" stroke="#000000" stroke-linecap="round" stroke-width="1" x1="23.143" x2="26.462" y1="1.0" y2="1.818" /><line clip-path="url(#border_clip)" stroke="#000000" stroke-linecap="round" stroke-width="1" x1="26.462" x2="29.021" y1="1.818" y2="4.085" /><line clip-path="url(#border_clip)" stroke="#000000" stroke-linecap="round" stroke-width="1" x1="29.021" x2="30.234" y1="4.085" y2="7.282" /><line clip-path="url(#border_clip)" stroke="#000000" stroke-linecap="round" stroke-width="1" x1="30.234" x2="29.822" y1="7.282" y2="10.676" /><line clip-path="url(#border_clip)" stroke="#000000" stroke-linecap="round" stroke-width="1" x1="29.822" x2="27.879" y1="10.676" y2="13.489" /><line clip-path="url(#border_clip)" stroke="#000000" stroke-linecap="round" stroke-width="1" x1="27.879" x2="24.852" y1="13.489" y2="15.078" /><line clip-path="url(#border_clip)" stroke="#000000" stroke-linecap="round" stroke-width="1" x1="24.852" x2="21.433" y1="15.078" y2="15.078" /><line clip-path="url(#border_clip)" stroke="#000000" stroke-linecap="round" stroke-width="1" x1="21.433" x2="18.406" y1="15.078" y2="13.489" /><line clip-path="url(#border_clip)" stroke="#000000" stroke-linecap="round" stroke-width="1" x1="18.406" x2="16.464" y1="13.489" y2="10.676" /><line clip-path="url(#border_clip)" stroke="#000000" stroke-linecap="round" stroke-width="1" x1="16.464" x2="16.052" y1="10.676" y2="7.282" /><line clip-path="url(#border_clip)" stroke="#000000" stroke-linecap="round" stroke-width="1" x1="16.052" x2="17.264" y1="7.282" y2="4.085" /><line clip-path="url(#border_clip)" stroke="#000000" stroke-linecap="round" stroke-width="1" x1="17.264" x2="19.823" y1="4.085" y2="1.818" /><line clip-path="url(#border_clip)" stroke="#000000" stroke-linecap="round" stroke-width="1" x1="19.823" x2="23.143" y1="1.818" y2="1.0" /><line clip-path="url(#border_clip)" stroke="#000000" stroke-linecap="round" stroke-width="1" x1="23.143" x2="23.143" y1="1.0" y2="1.0" /><line clip-path="url(#border_clip)" stroke="#000000" stroke-linecap="round" stroke-width="1" x1="8.143" x2="8.143" y1="16.0" y2="16.0" /><line clip-path="url(#border_clip)" stroke="#000000" stroke-linecap="round" stroke-width="1" x1="8.143" x2="11.462" y1="16.0" y2="16.818" /><line clip-path="url(#border_clip)" stroke="#000000" stroke-linecap="round" stroke-width="1" x1="11.462" x2="14.021" y1="16.818" y2="19.085" /><line clip-path="url(#border_clip)" stroke="#000000" stroke-linecap="round" stroke-width="1" x1="14.021" x2="15.234" y1="19.085" y2="22.282" /><line clip-path="url(#border_clip)" stroke="#000000" stroke-linecap="round" stroke-width="1" x1="15.234" x2="14.822" y1="22.282" y2="25.676" /><line clip-path="url(#border_clip)" stroke="#000000" stroke-linecap="round" stroke-width="1" x1="14.822" x2="12.879" y1="25.676" y2="28.489" /><line clip-path="url(#border_clip)" stroke="#000000" stroke-linecap="round" stroke-width="1" x1="12.879" x2="9.852" y1="28.489" y2="30.078" /><line clip-path="url(#border_clip)" stroke="#000000" stroke-linecap="round" stroke-width="1" x1="9.852" x2="6.433" y1="30.078" y2="30.078" /><line clip-path="url(#border_clip)" stroke="#000000" stroke-linecap="round" stroke-width="1" x1="6.433" x2="3.406" y1="30.078" y2="28.489" /><line clip-path="url(#border_clip)" stroke="#000000" stroke-linecap="round" stroke-width="1" x1="3.406" x2="1.464" y1="28.489" y2="25.676" /><line clip-path="url(#border_clip)" stroke="#000000" stroke-linecap="round" stroke-width="1" x1="1.464" x2="1.052" y1="25.676" y2="22.282" /><line clip-path="url(#border_clip)" stroke="#000000" stroke-linecap="round" stroke-width="1" x1="1.052" x2="2.264" y1="22.282" y2="19.085" /><line clip-path="url(#border_clip)" stroke="#000000" stroke-linecap="round" stroke-width="1" x1="2.264" x2="4.823" y1="19.085" y2="16.818" /><line clip-path="url(#border_clip)" stroke="#000000" stroke-linecap="round" stroke-width="1" x1="4.823" x2="8.143" y1="16.818" y2="16.0" /><polygon clip-path="url(#border_clip)" fill="#d2691e" fill-rule="evenodd" points="8.143,16.0 11.462,16.818 14.021,19.085 15.234,22.282 14.822,25.676 12.879,28.489 9.852,30.078 6.433,30.078 3.406,28.489 1.464,25.676 1.052,22.282 2.264,19.085 4.823,16.818 8.143,16.0" /><line clip-path="url(#border_clip)" stroke="#000000" stroke-linecap="round" stroke-width="1" x1="8.143" x2="11.462" y1="16.0" y2="16.818" /><line clip-path="url(#border_clip)" stroke="#000000" stroke-linecap="round" stroke-width="1" x1="11.462" x2="14.021" y1="16.818" y2="19.085" /><line clip-path="url(#border_clip)" stroke="#000000" stroke-linecap="round" stroke-width="1" x1="14.021" x2="15.234" y1="19.085" y2="22.282" /><line clip-path="url(#border_clip)" stroke="#000000" stroke-linecap="round" stroke-width="1" x1="15.234" x2="14.822" y1="22.282" y2="25.676" /><line clip-path="url(#border_clip)" stroke="#000000" stroke-linecap="round" stroke-width="1" x1="14.822" x2="12.879" y1="25.676" y2="28.489" /><line clip-path="url(#border_clip)" stroke="#000000" stroke-linecap="round" stroke-width="1" x1="12.879" x2="9.852" y1="28.489" y2="30.078" /><line clip-path="url(#border_clip)" stroke="#000000" stroke-linecap="round" stroke-width="1" x1="9.852" x2="6.433" y1="30.078" y2="30.078" /><line clip-path="url(#border_clip)" stroke="#000000" stroke-linecap="round" stroke-width="1" x1="6.433" x2="3.406" y1="30.078" y2="28.489" /><line clip-path="url(#border_clip)" stroke="#000000" stroke-linecap="round" stroke-width="1" x1="3.406" x2="1.464" y1="28.489" y2="25.676" /><line clip-path="url(#border_clip)" stroke="#000000" stroke-linecap="round" stroke-width="1" x1="1.464" x2="1.052" y1="25.676" y2="22.282" /><line clip-path="url(#border_clip)" stroke="#000000" stroke-linecap="round" stroke-width="1" x1="1.052" x2="2.264" y1="22.282" y2="19.085" /><line clip-path="url(#border_clip)" stroke="#000000" stroke-linecap="round" stroke-width="1" x1="2.264" x2="4.823" y1="19.085" y2="16.818" /><line clip-path="url(#border_clip)" stroke="#000000" stroke-linecap="round" stroke-width="1" x1="4.823" x2="8.143" y1="16.818" y2="16.0" /><line clip-path="url(#border_clip)" stroke="#000000" stroke-linecap="round" stroke-width="1" x1="8.143" x2="8.143" y1="16.0" y2="16.0" /><line clip-path="url(#border_clip)" stroke="#000000" stroke-linecap="round" stroke-width="1" x1="16.0" x2="16.0" y1="16.0" y2="16.0" /><line clip-path="url(#border_clip)" stroke="#000000" stroke-linecap="round" stroke-width="1" x1="16.0" x2="30.286" y1="16.0" y2="16.0" /><line clip-path="url(#border_clip)" stroke="#000000" stroke-linecap="round" stroke-width="1" x1="30.286" x2="30.286" y1="16.0" y2="30.286" /><line clip-path="url(#border_clip)" stroke="#000000" stroke-linecap="round" stroke-width="1" x1="30.286" x2="16.0" y1="30.286" y2="30.286" /><line clip-path="url(#border_clip)" stroke="#000000" stroke-linecap="round" stroke-width="1" x1="16.0" x2="16.0" y1="30.286" y2="16.0" /><polygon clip-path="url(#border_clip)" fill="#d2b48c" fill-rule="evenodd" points="16.0,16.0 30.286,16.0 30.286,30.286 16.0,30.286 16.0,16.0" /><line clip-path="url(#border_clip)" stroke="#000000" stroke-linecap="round" stroke-width="1" x1="16.0" x2="30.286" y1="16.0" y2="16.0" /><line clip-path="url(#border_clip)" stroke="#000000" stroke-linecap="round" stroke-width="1" x1="30.286" x2="30.286" y1="16.0" y2="30.286" /><line clip-path="url(#border_clip)" stroke="#000000" stroke-linecap="round" stroke-width="1" x1="30.286" x2="16.0" y1="30.286" y2="30.286" /><line clip-path="url(#border_clip)" stroke="#000000" stroke-linecap="round" stroke-width="1" x1="16.0" x2="16.0" y1="30.286" y2="16.0" /><line clip-path="url(#border_clip)" stroke="#000000" stroke-linecap="round" stroke-width="1" x1="16.0" x2="16.0" y1="16.0" y2="16.0" /><line clip-path="url(#border_clip)" stroke="#000000" stroke-linecap="round" stroke-width="1" x1="23.143" x2="23.143" y1="19.571" y2="19.571" /><line clip-path="url(#border_clip)" stroke="#000000" stroke-linecap="round" stroke-width="1" x1="23.143" x2="24.929" y1="19.571" y2="20.05" /><line clip-path="url(#border_clip)" stroke="#000000" stroke-linecap="round" stroke-width="1" x1="24.929" x2="26.236" y1="20.05" y2="21.357" /><line clip-path="url(#border_clip)" stroke="#000000" stroke-linecap="round" stroke-width="1" x1="26.236" x2="26.714" y1="21.357" y2="23.143" /><line clip-path="url(#border_clip)" stroke="#000000" stroke-linecap="round" stroke-width="1" x1="26.714" x2="26.236" y1="23.143" y2="24.929" /><line clip-path="url(#border_clip)" stroke="#000000" stroke-linecap="round" stroke-width="1" x1="26.236" x2="24.929" y1="24.929" y2="26.236" /><line clip-path="url(#border_clip)" stroke="#000000" stroke-linecap="round" stroke-width="1" x1="24.929" x2="23.143" y1="26.236" y2="26.714" /><line clip-path="url(#border_clip)" stroke="#000000" stroke-linecap="round" stroke-width="1" x1="23.143" x2="21.357" y1="26.714" y2="26.236" /><line clip-path="url(#border_clip)" stroke="#000000" stroke-linecap="round" stroke-width="1" x1="21.357" x2="20.05" y1="26.236" y2="24.929" /><line clip-path="url(#border_clip)" stroke="#000000" stroke-linecap="round" stroke-width="1" x1="20.05" x2="19.571" y1="24.929" y2="23.143" /><line clip-path="url(#border_clip)" stroke="#000000" stroke-linecap="round" stroke-width="1" x1="19.571" x2="20.05" y1="23.143" y2="21.357" /><line clip-path="url(#border_clip)" stroke="#000000" stroke-linecap="round" stroke-width="1" x1="20.05" x2="21.357" y1="21.357" y2="20.05" /><line clip-path="url(#border_clip)" stroke="#000000" stroke-linecap="round" stroke-width="1" x1="21.357" x2="23.143" y1="20.05" y2="19.571" /><polygon clip-path="url(#border_clip)" fill="#000000" fill-rule="evenodd" points="23.143,19.571 24.929,20.05 26.236,21.357 26.714,23.143 26.236,24.929 24.929,26.236 23.143,26.714 21.357,26.236 20.05,24.929 19.571,23.143 20.05,21.357 21.357,20.05 23.143,19.571" /><line clip-path="url(#border_clip)" stroke="#000000" stroke-linecap="round" stroke-width="1" x1="23.143" x2="24.929" y1="19.571" y2="20.05" /><line clip-path="url(#border_clip)" stroke="#000000" stroke-linecap="round" stroke-width="1" x1="24.929" x2="26.236" y1="20.05" y2="21.357" /><line clip-path="url(#border_clip)" stroke="#000000" stroke-linecap="round" stroke-width="1" x1="26.236" x2="26.714" y1="21.357" y2="23.143" /><line clip-path="url(#border_clip)" stroke="#000000" stroke-linecap="round" stroke-width="1" x1="26.714" x2="26.236" y1="23.143" y2="24.929" /><line clip-path="url(#border_clip)" stroke="#000000" stroke-linecap="round" stroke-width="1" x1="26.236" x2="24.929" y1="24.929" y2="26.236" /><line clip-path="url(#border_clip)" stroke="#000000" stroke-linecap="round" stroke-width="1" x1="24.929" x2="23.143" y1="26.236" y2="26.714" /><line clip-path="url(#border_clip)" stroke="#000000" stroke-linecap="round" stroke-width="1" x1="23.143" x2="21.357" y1="26.714" y2="26.236" /><line clip-path="url(#border_clip)" stroke="#000000" stroke-linecap="round" stroke-width="1" x1="21.357" x2="20.05" y1="26.236" y2="24.929" /><line clip-path="url(#border_clip)" stroke="#000000" stroke-linecap="round" stroke-width="1" x1="20.05" x2="19.571" y1="24.929" y2="23.143" /><line clip-path="url(#border_clip)" stroke="#000000" stroke-linecap="round" stroke-width="1" x1="19.571" x2="20.05" y1="23.143" y2="21.357" /><line clip-path="url(#border_clip)" stroke="#000000" stroke-linecap="round" stroke-width="1" x1="20.05" x2="21.357" y1="21.357" y2="20.05" /><line clip-path="url(#border_clip)" stroke="#000000" stroke-linecap="round" stroke-width="1" x1="21.357" x2="23.143" y1="20.05" y2="19.571" /><line clip-path="url(#border_clip)" stroke="#000000" stroke-linecap="round" stroke-width="1" x1="23.143" x2="23.143" y1="19.571" y2="19.571" /></svg>