<?xml version="1.0" encoding="utf-8" ?>
<svg baseProfile="full" height="172px" version="1.1" width="172px" xmlns="http://www.w3.org/2000/svg" xmlns:ev="http://www.w3.org/2001/xml-events" xmlns:xlink="http://www.w3.org/1999/xlink"><defs><clipPath id="border_clip"><rect height="172" width="172" x="0" y="0" /></clipPath></defs><line clip-path="url(#border_clip)" stroke="#000000" stroke-linecap="round" stroke-width="1" x1="5.25" x2="5.25" y1="1.0" y2="1.0" /><line clip-path="url(#border_clip)" stroke="#000000" stroke-linecap="round" stroke-width="1" x1="5.25" x2="166.75" y1="1.0" y2="1.0" /><line clip-path="url(#border_clip)" stroke="#000000" stroke-linecap="round" stroke-width="1" x1="166.75" x2="168.875" y1="1.0" y2="1.569" /><line clip-path="url(#border_clip)" stroke="#000000" stroke-linecap="round" stroke-width="1" x1="168.875" x2="170.431" y1="1.569" y2="3.125" /><line clip-path="url(#border_clip)" stroke="#000000" stroke-linecap="round" stroke-width="1" x1="170.431" x2="171.0" y1="3.125" y2="5.25" /><line clip-path="url(#border_clip)" stroke="#000000" stroke-linecap="round" stroke-width="1" x1="171.0" x2="171.0" y1="5.25" y2="166.75" /><line clip-path="url(#border_clip)" stroke="#000000" stroke-linecap="round" stroke-width="1" x1="171.0" x2="170.431" y1="166.75" y2="168.875" /><line clip-path="url(#border_clip)" stroke="#000000" stroke-linecap="round" stroke-width="1" x1="170.431" x2="168.875" y1="168.875" y2="170.431" /><line clip-path="url(#border_clip)" stroke="#000000" stroke-linecap="round" stroke-width="1" x1="168.875" x2="166.75" y1="170.431" y2="171.0" /><line clip-path="url(#border_clip)" stroke="#000000" stroke-linecap="round" stroke-width="1" x1="166.75" x2="5.25" y1="171.0" y2="171.0" /><line clip-path="url(#border_clip)" stroke="#000000" stroke-linecap="round" stroke-width="1" x1="5.25" x2="3.125" y1="171.0" y2="170.431" /><line clip-path="url(#border_clip)" stroke="#000000" stroke-linecap="round" stroke-width="1" x1="3.125" x2="1.569" y1="170.431" y2="168.875" /><line clip-path="url(#border_clip)" stroke="#000000" stroke-linecap="round" stroke-width="1" x1="1.569" x2="1.0" y1="168.875" y2="166.75" /><line clip-path="url(#border_clip)" stroke="#000000" stroke-linecap="round" stroke-width="1" x1="1.0" x2="1.0" y1="166.75" y2="5.25" /><line clip-path="url(#border_clip)" stroke="#000000" stroke-linecap="round" stroke-width="1" x1="1.0" x2="1.569" y1="5.25" y2="3.125" /><line clip-path="url(#border_clip)" stroke="#000000" stroke-linecap="round" stroke-width="1" x1="1.569" x2="3.125" y1="3.125" y2="1.569" /><line clip-path="url(#border_clip)" stroke="#000000" stroke-linecap="round" stroke-width="1" x1="3.125" x2="5.25" y1="1.569" y2="1.0" /><polygon clip-path="url(#border_clip)" fill="#fff8dc" fill-rule="evenodd" points="5.25,1.0 166.75,1.0 168.875,1.569 170.431,3.125 171.0,5.25 171.0,166.75 170.431,168.875 168.875,170.431 166.75,171.0 5.25,171.0 3.125,170.431 1.569,168.875 1.0,166.75 1.0,5.25 1.569,3.125 3.125,1.569 5.25,1.0" /><line clip-path="url(#border_clip)" stroke="#000000" stroke-linecap="round" stroke-width="1" x1="5.25" x2="166.75" y1="1.0" y2="1.0" /><line clip-path="url(#border_clip)" stroke="#000000" stroke-linecap="round" stroke-width="1" x1="166.75" x2="168.875" y1="1.0" y2="1.569" /><line clip-path="url(#border_clip)" stroke="#000000" stroke-linecap="round" stroke-width="1" x1="168.875" x2="170.431" y1="1.569" y2="3.125" /><line clip-path="url(#border_clip)" stroke="#000000" stroke-linecap="round" stroke-width="1" x1="170.431" x2="171.0" y1="3.125" y2="5.25" /><line clip-path="url(#border_clip)" stroke="#000000" stroke-linecap="round" stroke-width="1" x1="171.0" x2="171.0" y1="5.25" y2="166.75" /><line clip-path="url(#border_clip)" stroke="#000000" stroke-linecap="round" stroke-width="1" x1="171.0" x2="170.431" y1="166.75" y2="168.875" /><line clip-path="url(#border_clip)" stroke="#000000" stroke-linecap="round" stroke-width="1" x1="170.431" x2="168.875" y1="168.875" y2="170.431" /><line clip-path="url(#border_clip)" stroke="#000000" stroke-linecap="round" stroke-width="1" x1="168.875" x2="166.75" y1="170.431" y2="171.0" /><line clip-path="url(#border_clip)" stroke="#000000" stroke-linecap="round" stroke-width="1" x1="166.75" x2="5.25" y1="171.0" y2="171.0" /><line clip-path="url(#border_clip)" stroke="#000000" stroke-linecap="round" stroke-width="1" x1="5.25" x2="3.125" y1="171.0" y2="170.431" /><line clip-path="url(#border_clip)" stroke="#000000" stroke-linecap="round" stroke-width="1" x1="3.125" x2="1.569" y1="170.431" y2="168.875" /><line clip-path="url(#border_clip)" stroke="#000000" stroke-linecap="round" stroke-width="1" x1="1.569" x2="1.0" y1="168.875" y2="166.75" /><line clip-path="url(#border_clip)" stroke="#000000" stroke-linecap="round" stroke-width="1" x1="1.0" x2="1.0" y1="166.75" y2="5.25" /><line clip-path="url(#border_clip)" stroke="#000000" stroke-linecap="round" stroke-width="1" x1="1.0" x2="1.569" y1="5.25" y2="3.125" /><line clip-path="url(#border_clip)" stroke="#000000" stroke-linecap="round" stroke-width="1" x1="1.569" x2="3.125" y1="3.125" y2="1.569" /><line clip-path="url(#border_clip)" stroke="#000000" stroke-linecap="round" stroke-width="1" x1="3.125" x2="5.25" y1="1.569" y2="1.0" /><line clip-path="url(#border_clip)" stroke="#000000" stroke-linecap="round" stroke-width="1" x1="5.25" x2="5.25" y1="1.0" y2="1.0" /><line clip-path="url(#border_clip)" stroke="#000000" stroke-linecap="round" stroke-width="1" x1="43.5" x2="43.5" y1="1.0" y2="171.0" /><line clip-path="url(#border_clip)" stroke="#000000" stroke-linecap="round" stroke-width="1" x1="86.0" x2="86.0" y1="1.0" y2="171.0" /><line clip-path="url(#border_clip)" stroke="#000000" stroke-linecap="round" stroke-width="1" x1="128.5" x2="128.5" y1="1.0" y2="171.0" /><line clip-path="url(#border_clip)" stroke="#000000" stroke-linecap="round" stroke-width="1" x1="171.0" x2="1.0" y1="43.5" y2="43.5" /><line clip-path="url(#border_clip)" stroke="#000000" stroke-linecap="round" stroke-width="1" x1="171.0" x2="1.0" y1="86.0" y2="86.0" /><line clip-path="url(#border_clip)" stroke="#000000" stroke-linecap="round" stroke-width="1" x1="171.0" x2="1.0" y1="128.5" y2="128.5" /></svg>