<?xml version="1.0" encoding="utf-8" ?>
<svg baseProfile="full" height="32px" version="1.1" width="32px" xmlns="http://www.w3.org/2000/svg" xmlns:ev="http://www.w3.org/2001/xml-events" xmlns:xlink="http://www.w3.org/1999/xlink"><defs><clipPath id="border_clip"><rect height="32" width="32" x="0" y="0" /></clipPath></defs><line clip-path="url(#border_clip)" stroke="#000000" stroke-linecap="round" stroke-width="1" x1="10.75" x2="10.75" y1="13.258" y2="13.258" /><line clip-path="url(#border_clip)" stroke="#000000" stroke-linecap="round" stroke-width="1" x1="10.75" x2="15.5" y1="13.258" y2="10.515" /><line clip-path="url(#border_clip)" stroke="#000000" stroke-linecap="round" stroke-width="1" x1="15.5" x2="15.5" y1="10.515" y2="5.03" /><line clip-path="url(#border_clip)" stroke="#000000" stroke-linecap="round" stroke-width="1" x1="15.5" x2="10.75" y1="5.03" y2="2.288" /><line clip-path="url(#border_clip)" stroke="#000000" stroke-linecap="round" stroke-width="1" x1="10.75" x2="6.0" y1="2.288" y2="5.03" /><line clip-path="url(#border_clip)" stroke="#000000" stroke-linecap="round" stroke-width="1" x1="6.0" x2="6.0" y1="5.03" y2="10.515" /><line clip-path="url(#border_clip)" stroke="#000000" stroke-linecap="round" stroke-width="1" x1="6.0" x2="10.75" y1="10.515" y2="13.258" /><polygon clip-path="url(#border_clip)" fill="#faebd7" fill-rule="evenodd" points="10.75,13.258 15.5,10.515 15.5,5.03 10.75,2.288 6.0,5.03 6.0,10.515 10.75,13.258" /><line clip-path="url(#border_clip)" stroke="#000000" stroke-linecap="round" stroke-width="1" x1="10.75" x2="15.5" y1="13.258" y2="10.515" /><line clip-path="url(#border_clip)" stroke="#000000" stroke-linecap="round" stroke-width="1" x1="15.5" x2="15.5" y1="10.515" y2="5.03" /><line clip-path="url(#border_clip)" stroke="#000000" stroke-linecap="round" stroke-width="1" x1="15.5" x2="10.75" y1="5.03" y2="2.288" /><line clip-path="url(#border_clip)" stroke="#000000" stroke-linecap="round" stroke-width="1" x1="10.75" x2="6.0" y1="2.288" y2="5.03" /><line clip-path="url(#border_clip)" stroke="#000000" stroke-linecap="round" stroke-width="1" x1="6.0" x2="6.0" y1="5.03" y2="10.515" /><line clip-path="url(#border_clip)" stroke="#000000" stroke-linecap="round" stroke-width="1" x1="6.0" x2="10.75" y1="10.515" y2="13.258" /><line clip-path="url(#border_clip)" stroke="#000000" stroke-linecap="round" stroke-width="1" x1="10.75" x2="10.75" y1="13.258" y2="13.258" /><line clip-path="url(#border_clip)" stroke="#000000" stroke-linecap="round" stroke-width="1" x1="20.25" x2="20.25" y1="13.258" y2="13.258" /><line clip-path="url(#border_clip)" stroke="#000000" stroke-linecap="round" stroke-width="1" x1="20.25" x2="25.0" y1="13.258" y2="10.515" /><line clip-path="url(#border_clip)" stroke="#000000" stroke-linecap="round" stroke-width="1" x1="25.0" x2="25.0" y1="10.515" y2="5.03" /><line clip-path="url(#border_clip)" stroke="#000000" stroke-linecap="round" stroke-width="1" x1="25.0" x2="20.25" y1="5.03" y2="2.288" /><line clip-path="url(#border_clip)" stroke="#000000" stroke-linecap="round" stroke-width="1" x1="20.25" x2="15.5" y1="2.288" y2="5.03" /><line clip-path="url(#border_clip)" stroke="#000000" stroke-linecap="round" stroke-width="1" x1="15.5" x2="15.5" y1="5.03" y2="10.515" /><line clip-path="url(#border_clip)" stroke="#000000" stroke-linecap="round" stroke-width="1" x1="15.5" x2="20.25" y1="10.515" y2="13.258" /><polygon clip-path="url(#border_clip)" fill="#faebd7" fill-rule="evenodd" points="20.25,13.258 25.0,10.515 25.0,5.03 20.25,2.288 15.5,5.03 15.5,10.515 20.25,13.258" /><line clip-path="url(#border_clip)" stroke="#000000" stroke-linecap="round" stroke-width="1" x1="20.25" x2="25.0" y1="13.258" y2="10.515" /><line clip-path="url(#border_clip)" stroke="#000000" stroke-linecap="round" stroke-width="1" x1="25.0" x2="25.0" y1="10.515" y2="5.03" /><line clip-path="url(#border_clip)" stroke="#000000" stroke-linecap="round" stroke-width="1" x1="25.0" x2="20.25" y1="5.03" y2="2.288" /><line clip-path="url(#border_clip)" stroke="#000000" stroke-linecap="round" stroke-width="1" x1="20.25" x2="15.5" y1="2.288" y2="5.03" /><line clip-path="url(#border_clip)" stroke="#000000" stroke-linecap="round" stroke-width="1" x1="15.5" x2="15.5" y1="5.03" y2="10.515" /><line clip-path="url(#border_clip)" stroke="#000000" stroke-linecap="round" stroke-width="1" x1="15.5" x2="20.25" y1="10.515" y2="13.258" /><line clip-path="url(#border_clip)" stroke="#000000" stroke-linecap="round" stroke-width="1" x1="20.25" x2="20.25" y1="13.258" y2="13.258" /><line clip-path="url(#border_clip)" stroke="#000000" stroke-linecap="round" stroke-width="1" x1="6.0" x2="6.0" y1="21.485" y2="21.485" /><line clip-path="url(#border_clip)" stroke="#000000" stroke-linecap="round" stroke-width="1" x1="6.0" x2="10.75" y1="21.485" y2="18.742" /><line clip-path="url(#border_clip)" stroke="#000000" stroke-linecap="round" stroke-width="1" x1="10.75" x2="10.75" y1="18.742" y2="13.258" /><line clip-path="url(#border_clip)" stroke="#000000" stroke-linecap="round" stroke-width="1" x1="10.75" x2="6.0" y1="13.258" y2="10.515" /><line clip-path="url(#border_clip)" stroke="#000000" stroke-linecap="round" stroke-width="1" x1="6.0" x2="1.25" y1="10.515" y2="13.258" /><line clip-path="url(#border_clip)" stroke="#000000" stroke-linecap="round" stroke-width="1" x1="1.25" x2="1.25" y1="13.258" y2="18.742" /><line clip-path="url(#border_clip)" stroke="#000000" stroke-linecap="round" stroke-width="1" x1="1.25" x2="6.0" y1="18.742" y2="21.485" /><polygon clip-path="url(#border_clip)" fill="#faebd7" fill-rule="evenodd" points="6.0,21.485 10.75,18.742 10.75,13.258 6.0,10.515 1.25,13.258 1.25,18.742 6.0,21.485" /><line clip-path="url(#border_clip)" stroke="#000000" stroke-linecap="round" stroke-width="1" x1="6.0" x2="10.75" y1="21.485" y2="18.742" /><line clip-path="url(#border_clip)" stroke="#000000" stroke-linecap="round" stroke-width="1" x1="10.75" x2="10.75" y1="18.742" y2="13.258" /><line clip-path="url(#border_clip)" stroke="#000000" stroke-linecap="round" stroke-width="1" x1="10.75" x2="6.0" y1="13.258" y2="10.515" /><line clip-path="url(#border_clip)" stroke="#000000" stroke-linecap="round" stroke-width="1" x1="6.0" x2="1.25" y1="10.515" y2="13.258" /><line clip-path="url(#border_clip)" stroke="#000000" stroke-linecap="round" stroke-width="1" x1="1.25" x2="1.25" y1="13.258" y2="18.742" /><line clip-path="url(#border_clip)" stroke="#000000" stroke-linecap="round" stroke-width="1" x1="1.25" x2="6.0" y1="18.742" y2="21.485" /><line clip-path="url(#border_clip)" stroke="#000000" stroke-linecap="round" stroke-width="1" x1="6.0" x2="6.0" y1="21.485" y2="21.485" /><line clip-path="url(#border_clip)" stroke="#000000" stroke-linecap="round" stroke-width="1" x1="15.5" x2="15.5" y1="21.485" y2="21.485" /><line clip-path="url(#border_clip)" stroke="#000000" stroke-linecap="round" stroke-width="1" x1="15.5" x2="20.25" y1="21.485" y2="18.742" /><line clip-path="url(#border_clip)" stroke="#000000" stroke-linecap="round" stroke-width="1" x1="20.25" x2="20.25" y1="18.742" y2="13.258" /><line clip-path="url(#border_clip)" stroke="#000000" stroke-linecap="round" stroke-width="1" x1="20.25" x2="15.5" y1="13.258" y2="10.515" /><line clip-path="url(#border_clip)" stroke="#000000" stroke-linecap="round" stroke-width="1" x1="15.5" x2="10.75" y1="10.515" y2="13.258" /><line clip-path="url(#border_clip)" stroke="#000000" stroke-linecap="round" stroke-width="1" x1="10.75" x2="10.75" y1="13.258" y2="18.742" /><line clip-path="url(#border_clip)" stroke="#000000" stroke-linecap="round" stroke-width="1" x1="10.75" x2="15.5" y1="18.742" y2="21.485" /><polygon clip-path="url(#border_clip)" fill="#faebd7" fill-rule="evenodd" points="15.5,21.485 20.25,18.742 20.25,13.258 15.5,10.515 10.75,13.258 10.75,18.742 15.5,21.485" /><line clip-path="url(#border_clip)" stroke="#000000" stroke-linecap="round" stroke-width="1" x1="15.5" x2="20.25" y1="21.485" y2="18.742" /><line clip-path="url(#border_clip)" stroke="#000000" stroke-linecap="round" stroke-width="1" x1="20.25" x2="20.25" y1="18.742" y2="13.258" /><line clip-path="url(#border_clip)" stroke="#000000" stroke-linecap="round" stroke-width="1" x1="20.25" x2="15.5" y1="13.258" y2="10.515" /><line clip-path="url(#border_clip)" stroke="#000000" stroke-linecap="round" stroke-width="1" x1="15.5" x2="10.75" y1="10.515" y2="13.258" /><line clip-path="url(#border_clip)" stroke="#000000" stroke-linecap="round" stroke-width="1" x1="10.75" x2="10.75" y1="13.258" y2="18.742" /><line clip-path="url(#border_clip)" stroke="#000000" stroke-linecap="round" stroke-width="1" x1="10.75" x2="15.5" y1="18.742" y2="21.485" /><line clip-path="url(#border_clip)" stroke="#000000" stroke-linecap="round" stroke-width="1" x1="15.5" x2="15.5" y1="21.485" y2="21.485" /><line clip-path="url(#border_clip)" stroke="#000000" stroke-linecap="round" stroke-width="1" x1="25.0" x2="25.0" y1="21.485" y2="21.485" /><line clip-path="url(#border_clip)" stroke="#000000" stroke-linecap="round" stroke-width="1" x1="25.0" x2="29.75" y1="21.485" y2="18.742" /><line clip-path="url(#border_clip)" stroke="#000000" stroke-linecap="round" stroke-width="1" x1="29.75" x2="29.75" y1="18.742" y2="13.258" /><line clip-path="url(#border_clip)" stroke="#000000" stroke-linecap="round" stroke-width="1" x1="29.75" x2="25.0" y1="13.258" y2="10.515" /><line clip-path="url(#border_clip)" stroke="#000000" stroke-linecap="round" stroke-width="1" x1="25.0" x2="20.25" y1="10.515" y2="13.258" /><line clip-path="url(#border_clip)" stroke="#000000" stroke-linecap="round" stroke-width="1" x1="20.25" x2="20.25" y1="13.258" y2="18.742" /><line clip-path="url(#border_clip)" stroke="#000000" stroke-linecap="round" stroke-width="1" x1="20.25" x2="25.0" y1="18.742" y2="21.485" /><polygon clip-path="url(#border_clip)" fill="#faebd7" fill-rule="evenodd" points="25.0,21.485 29.75,18.742 29.75,13.258 25.0,10.515 20.25,13.258 20.25,18.742 25.0,21.485" /><line clip-path="url(#border_clip)" stroke="#000000" stroke-linecap="round" stroke-width="1" x1="25.0" x2="29.75" y1="21.485" y2="18.742" /><line clip-path="url(#border_clip)" stroke="#000000" stroke-linecap="round" stroke-width="1" x1="29.75" x2="29.75" y1="18.742" y2="13.258" /><line clip-path="url(#border_clip)" stroke="#000000" stroke-linecap="round" stroke-width="1" x1="29.75" x2="25.0" y1="13.258" y2="10.515" /><line clip-path="url(#border_clip)" stroke="#000000" stroke-linecap="round" stroke-width="1" x1="25.0" x2="20.25" y1="10.515" y2="13.258" /><line clip-path="url(#border_clip)" stroke="#000000" stroke-linecap="round" stroke-width="1" x1="20.25" x2="20.25" y1="13.258" y2="18.742" /><line clip-path="url(#border_clip)" stroke="#000000" stroke-linecap="round" stroke-width="1" x1="20.25" x2="25.0" y1="18.742" y2="21.485" /><line clip-path="url(#border_clip)" stroke="#000000" stroke-linecap="round" stroke-width="1" x1="25.0" x2="25.0" y1="21.485" y2="21.485" /><line clip-path="url(#border_clip)" stroke="#000000" stroke-linecap="round" stroke-width="1" x1="10.75" x2="10.75" y1="29.712" y2="29.712" /><line clip-path="url(#border_clip)" stroke="#000000" stroke-linecap="round" stroke-width="1" x1="10.75" x2="15.5" y1="29.712" y2="26.97" /><line clip-path="url(#border_clip)" stroke="#000000" stroke-linecap="round" stroke-width="1" x1="15.5" x2="15.5" y1="26.97" y2="21.485" /><line clip-path="url(#border_clip)" stroke="#000000" stroke-linecap="round" stroke-width="1" x1="15.5" x2="10.75" y1="21.485" y2="18.742" /><line clip-path="url(#border_clip)" stroke="#000000" stroke-linecap="round" stroke-width="1" x1="10.75" x2="6.0" y1="18.742" y2="21.485" /><line clip-path="url(#border_clip)" stroke="#000000" stroke-linecap="round" stroke-width="1" x1="6.0" x2="6.0" y1="21.485" y2="26.97" /><line clip-path="url(#border_clip)" stroke="#000000" stroke-linecap="round" stroke-width="1" x1="6.0" x2="10.75" y1="26.97" y2="29.712" /><polygon clip-path="url(#border_clip)" fill="#faebd7" fill-rule="evenodd" points="10.75,29.712 15.5,26.97 15.5,21.485 10.75,18.742 6.0,21.485 6.0,26.97 10.75,29.712" /><line clip-path="url(#border_clip)" stroke="#000000" stroke-linecap="round" stroke-width="1" x1="10.75" x2="15.5" y1="29.712" y2="26.97" /><line clip-path="url(#border_clip)" stroke="#000000" stroke-linecap="round" stroke-width="1" x1="15.5" x2="15.5" y1="26.97" y2="21.485" /><line clip-path="url(#border_clip)" stroke="#000000" stroke-linecap="round" stroke-width="1" x1="15.5" x2="10.75" y1="21.485" y2="18.742" /><line clip-path="url(#border_clip)" stroke="#000000" stroke-linecap="round" stroke-width="1" x1="10.75" x2="6.0" y1="18.742" y2="21.485" /><line clip-path="url(#border_clip)" stroke="#000000" stroke-linecap="round" stroke-width="1" x1="6.0" x2="6.0" y1="21.485" y2="26.97" /><line clip-path="url(#border_clip)" stroke="#000000" stroke-linecap="round" stroke-width="1" x1="6.0" x2="10.75" y1="26.97" y2="29.712" /><line clip-path="url(#border_clip)" stroke="#000000" stroke-linecap="round" stroke-width="1" x1="10.75" x2="10.75" y1="29.712" y2="29.712" /><line clip-path="url(#border_clip)" stroke="#000000" stroke-linecap="round" stroke-width="1" x1="20.25" x2="20.25" y1="29.712" y2="29.712" /><line clip-path="url(#border_clip)" stroke="#000000" stroke-linecap="round" stroke-width="1" x1="20.25" x2="25.0" y1="29.712" y2="26.97" /><line clip-path="url(#border_clip)" stroke="#000000" stroke-linecap="round" stroke-width="1" x1="25.0" x2="25.0" y1="26.97" y2="21.485" /><line clip-path="url(#border_clip)" stroke="#000000" stroke-linecap="round" stroke-width="1" x1="25.0" x2="20.25" y1="21.485" y2="18.742" /><line clip-path="url(#border_clip)" stroke="#000000" stroke-linecap="round" stroke-width="1" x1="20.25" x2="15.5" y1="18.742" y2="21.485" /><line clip-path="url(#border_clip)" stroke="#000000" stroke-linecap="round" stroke-width="1" x1="15.5" x2="15.5" y1="21.485" y2="26.97" /><line clip-path="url(#border_clip)" stroke="#000000" stroke-linecap="round" stroke-width="1" x1="15.5" x2="20.25" y1="26.97" y2="29.712" /><polygon clip-path="url(#border_clip)" fill="#faebd7" fill-rule="evenodd" points="20.25,29.712 25.0,26.97 25.0,21.485 20.25,18.742 15.5,21.485 15.5,26.97 20.25,29.712" /><line clip-path="url(#border_clip)" stroke="#000000" stroke-linecap="round" stroke-width="1" x1="20.25" x2="25.0" y1="29.712" y2="26.97" /><line clip-path="url(#border_clip)" stroke="#000000" stroke-linecap="round" stroke-width="1" x1="25.0" x2="25.0" y1="26.97" y2="21.485" /><line clip-path="url(#border_clip)" stroke="#000000" stroke-linecap="round" stroke-width="1" x1="25.0" x2="20.25" y1="21.485" y2="18.742" /><line clip-path="url(#border_clip)" stroke="#000000" stroke-linecap="round" stroke-width="1" x1="20.25" x2="15.5" y1="18.742" y2="21.485" /><line clip-path="url(#border_clip)" stroke="#000000" stroke-linecap="round" stroke-width="1" x1="15.5" x2="15.5" y1="21.485" y2="26.97" /><line clip-path="url(#border_clip)" stroke="#000000" stroke-linecap="round" stroke-width="1" x1="15.5" x2="20.25" y1="26.97" y2="29.712" /><line clip-path="url(#border_clip)" stroke="#000000" stroke-linecap="round" stroke-width="1" x1="20.25" x2="20.25" y1="29.712" y2="29.712" /><circle clip-path="url(#border_clip)" cx="16.0" cy="16.0" fill="#000000" r="1.0" stroke="#000000" /><circle clip-path="url(#border_clip)" cx="16.0" cy="16.0" fill="#6495ed" r="1.0" stroke="#6495ed" /><circle clip-path="url(#border_clip)" cx="16.0" cy="16.0" fill="#000000" r="0.5" stroke="#000000" /><circle clip-path="url(#border_clip)" cx="16.0" cy="16.0" fill="#6495ed" r="0.5" stroke="#6495ed" /><circle clip-path="url(#border_clip)" cx="25.5" cy="16.0" fill="#000000" r="1.5" stroke="#000000" /><circle clip-path="url(#border_clip)" cx="25.5" cy="16.0" fill="#fffff0" r="1.5" stroke="#fffff0" /><circle clip-path="url(#border_clip)" cx="25.5" cy="16.0" fill="#000000" r="1.0" stroke="#000000" /><circle clip-path="url(#border_clip)" cx="25.5" cy="16.0" fill="#fffff0" r="1.0" stroke="#fffff0" /><circle clip-path="url(#border_clip)" cx="25.5" cy="16.0" fill="#000000" r="0.5" stroke="#000000" /><circle clip-path="url(#border_clip)" cx="25.5" cy="16.0" fill="#fffff0" r="0.5" stroke="#fffff0" /></svg>