<?xml version="1.0" encoding="utf-8" ?>
<svg baseProfile="full" height="172px" version="1.1" width="172px" xmlns="http://www.w3.org/2000/svg" xmlns:ev="http://www.w3.org/2001/xml-events" xmlns:xlink="http://www.w3.org/1999/xlink"><defs><clipPath id="border_clip"><rect height="172" width="172" x="0" y="0" /></clipPath></defs><line clip-path="url(#border_clip)" stroke="#000000" stroke-linecap="round" stroke-width="1" x1="54.583" x2="54.583" y1="50.012" y2="50.012" /><line clip-path="url(#border_clip)" stroke="#000000" stroke-linecap="round" stroke-width="1" x1="54.583" x2="70.167" y1="50.012" y2="41.015" /><line clip-path="url(#border_clip)" stroke="#000000" stroke-linecap="round" stroke-width="1" x1="70.167" x2="70.167" y1="41.015" y2="23.021" /><line clip-path="url(#border_clip)" stroke="#000000" stroke-linecap="round" stroke-width="1" x1="70.167" x2="54.583" y1="23.021" y2="14.024" /><line clip-path="url(#border_clip)" stroke="#000000" stroke-linecap="round" stroke-width="1" x1="54.583" x2="39.0" y1="14.024" y2="23.021" /><line clip-path="url(#border_clip)" stroke="#000000" stroke-linecap="round" stroke-width="1" x1="39.0" x2="39.0" y1="23.021" y2="41.015" /><line clip-path="url(#border_clip)" stroke="#000000" stroke-linecap="round" stroke-width="1" x1="39.0" x2="54.583" y1="41.015" y2="50.012" /><polygon clip-path="url(#border_clip)" fill="#faebd7" fill-rule="evenodd" points="54.583,50.012 70.167,41.015 70.167,23.021 54.583,14.024 39.0,23.021 39.0,41.015 54.583,50.012" /><line clip-path="url(#border_clip)" stroke="#000000" stroke-linecap="round" stroke-width="1" x1="54.583" x2="70.167" y1="50.012" y2="41.015" /><line clip-path="url(#border_clip)" stroke="#000000" stroke-linecap="round" stroke-width="1" x1="70.167" x2="70.167" y1="41.015" y2="23.021" /><line clip-path="url(#border_clip)" stroke="#000000" stroke-linecap="round" stroke-width="1" x1="70.167" x2="54.583" y1="23.021" y2="14.024" /><line clip-path="url(#border_clip)" stroke="#000000" stroke-linecap="round" stroke-width="1" x1="54.583" x2="39.0" y1="14.024" y2="23.021" /><line clip-path="url(#border_clip)" stroke="#000000" stroke-linecap="round" stroke-width="1" x1="39.0" x2="39.0" y1="23.021" y2="41.015" /><line clip-path="url(#border_clip)" stroke="#000000" stroke-linecap="round" stroke-width="1" x1="39.0" x2="54.583" y1="41.015" y2="50.012" /><line clip-path="url(#border_clip)" stroke="#000000" stroke-linecap="round" stroke-width="1" x1="54.583" x2="54.583" y1="50.012" y2="50.012" /><line clip-path="url(#border_clip)" stroke="#000000" stroke-linecap="round" stroke-width="1" x1="85.75" x2="85.75" y1="50.012" y2="50.012" /><line clip-path="url(#border_clip)" stroke="#000000" stroke-linecap="round" stroke-width="1" x1="85.75" x2="101.333" y1="50.012" y2="41.015" /><line clip-path="url(#border_clip)" stroke="#000000" stroke-linecap="round" stroke-width="1" x1="101.333" x2="101.333" y1="41.015" y2="23.021" /><line clip-path="url(#border_clip)" stroke="#000000" stroke-linecap="round" stroke-width="1" x1="101.333" x2="85.75" y1="23.021" y2="14.024" /><line clip-path="url(#border_clip)" stroke="#000000" stroke-linecap="round" stroke-width="1" x1="85.75" x2="70.167" y1="14.024" y2="23.021" /><line clip-path="url(#border_clip)" stroke="#000000" stroke-linecap="round" stroke-width="1" x1="70.167" x2="70.167" y1="23.021" y2="41.015" /><line clip-path="url(#border_clip)" stroke="#000000" stroke-linecap="round" stroke-width="1" x1="70.167" x2="85.75" y1="41.015" y2="50.012" /><polygon clip-path="url(#border_clip)" fill="#faebd7" fill-rule="evenodd" points="85.75,50.012 101.333,41.015 101.333,23.021 85.75,14.024 70.167,23.021 70.167,41.015 85.75,50.012" /><line clip-path="url(#border_clip)" stroke="#000000" stroke-linecap="round" stroke-width="1" x1="85.75" x2="101.333" y1="50.012" y2="41.015" /><line clip-path="url(#border_clip)" stroke="#000000" stroke-linecap="round" stroke-width="1" x1="101.333" x2="101.333" y1="41.015" y2="23.021" /><line clip-path="url(#border_clip)" stroke="#000000" stroke-linecap="round" stroke-width="1" x1="101.333" x2="85.75" y1="23.021" y2="14.024" /><line clip-path="url(#border_clip)" stroke="#000000" stroke-linecap="round" stroke-width="1" x1="85.75" x2="70.167" y1="14.024" y2="23.021" /><line clip-path="url(#border_clip)" stroke="#000000" stroke-linecap="round" stroke-width="1" x1="70.167" x2="70.167" y1="23.021" y2="41.015" /><line clip-path="url(#border_clip)" stroke="#000000" stroke-linecap="round" stroke-width="1" x1="70.167" x2="85.75" y1="41.015" y2="50.012" /><line clip-path="url(#border_clip)" stroke="#000000" stroke-linecap="round" stroke-width="1" x1="85.75" x2="85.75" y1="50.012" y2="50.012" /><line clip-path="url(#border_clip)" stroke="#000000" stroke-linecap="round" stroke-width="1" x1="116.917" x2="116.917" y1="50.012" y2="50.012" /><line clip-path="url(#border_clip)" stroke="#000000" stroke-linecap="round" stroke-width="1" x1="116.917" x2="132.5" y1="50.012" y2="41.015" /><line clip-path="url(#border_clip)" stroke="#000000" stroke-linecap="round" stroke-width="1" x1="132.5" x2="132.5" y1="41.015" y2="23.021" /><line clip-path="url(#border_clip)" stroke="#000000" stroke-linecap="round" stroke-width="1" x1="132.5" x2="116.917" y1="23.021" y2="14.024" /><line clip-path="url(#border_clip)" stroke="#000000" stroke-linecap="round" stroke-width="1" x1="116.917" x2="101.333" y1="14.024" y2="23.021" /><line clip-path="url(#border_clip)" stroke="#000000" stroke-linecap="round" stroke-width="1" x1="101.333" x2="101.333" y1="23.021" y2="41.015" /><line clip-path="url(#border_clip)" stroke="#000000" stroke-linecap="round" stroke-width="1" x1="101.333" x2="116.917" y1="41.015" y2="50.012" /><polygon clip-path="url(#border_clip)" fill="#faebd7" fill-rule="evenodd" points="116.917,50.012 132.5,41.015 132.5,23.021 116.917,14.024 101.333,23.021 101.333,41.015 116.917,50.012" /><line clip-path="url(#border_clip)" stroke="#000000" stroke-linecap="round" stroke-width="1" x1="116.917" x2="132.5" y1="50.012" y2="41.015" /><line clip-path="url(#border_clip)" stroke="#000000" stroke-linecap="round" stroke-width="1" x1="132.5" x2="132.5" y1="41.015" y2="23.021" /><line clip-path="url(#border_clip)" stroke="#000000" stroke-linecap="round" stroke-width="1" x1="132.5" x2="116.917" y1="23.021" y2="14.024" /><line clip-path="url(#border_clip)" stroke="#000000" stroke-linecap="round" stroke-width="1" x1="116.917" x2="101.333" y1="14.024" y2="23.021" /><line clip-path="url(#border_clip)" stroke="#000000" stroke-linecap="round" stroke-width="1" x1="101.333" x2="101.333" y1="23.021" y2="41.015" /><line clip-path="url(#border_clip)" stroke="#000000" stroke-linecap="round" stroke-width="1" x1="101.333" x2="116.917" y1="41.015" y2="50.012" /><line clip-path="url(#border_clip)" stroke="#000000" stroke-linecap="round" stroke-width="1" x1="116.917" x2="116.917" y1="50.012" y2="50.012" /><line clip-path="url(#border_clip)" stroke="#000000" stroke-linecap="round" stroke-width="1" x1="39.0" x2="39.0" y1="77.003" y2="77.003" /><line clip-path="url(#border_clip)" stroke="#000000" stroke-linecap="round" stroke-width="1" x1="39.0" x2="54.583" y1="77.003" y2="68.006" /><line clip-path="url(#border_clip)" stroke="#000000" stroke-linecap="round" stroke-width="1" x1="54.583" x2="54.583" y1="68.006" y2="50.012" /><line clip-path="url(#border_clip)" stroke="#000000" stroke-linecap="round" stroke-width="1" x1="54.583" x2="39.0" y1="50.012" y2="41.015" /><line clip-path="url(#border_clip)" stroke="#000000" stroke-linecap="round" stroke-width="1" x1="39.0" x2="23.417" y1="41.015" y2="50.012" /><line clip-path="url(#border_clip)" stroke="#000000" stroke-linecap="round" stroke-width="1" x1="23.417" x2="23.417" y1="50.012" y2="68.006" /><line clip-path="url(#border_clip)" stroke="#000000" stroke-linecap="round" stroke-width="1" x1="23.417" x2="39.0" y1="68.006" y2="77.003" /><polygon clip-path="url(#border_clip)" fill="#faebd7" fill-rule="evenodd" points="39.0,77.003 54.583,68.006 54.583,50.012 39.0,41.015 23.417,50.012 23.417,68.006 39.0,77.003" /><line clip-path="url(#border_clip)" stroke="#000000" stroke-linecap="round" stroke-width="1" x1="39.0" x2="54.583" y1="77.003" y2="68.006" /><line clip-path="url(#border_clip)" stroke="#000000" stroke-linecap="round" stroke-width="1" x1="54.583" x2="54.583" y1="68.006" y2="50.012" /><line clip-path="url(#border_clip)" stroke="#000000" stroke-linecap="round" stroke-width="1" x1="54.583" x2="39.0" y1="50.012" y2="41.015" /><line clip-path="url(#border_clip)" stroke="#000000" stroke-linecap="round" stroke-width="1" x1="39.0" x2="23.417" y1="41.015" y2="50.012" /><line clip-path="url(#border_clip)" stroke="#000000" stroke-linecap="round" stroke-width="1" x1="23.417" x2="23.417" y1="50.012" y2="68.006" /><line clip-path="url(#border_clip)" stroke="#000000" stroke-linecap="round" stroke-width="1" x1="23.417" x2="39.0" y1="68.006" y2="77.003" /><line clip-path="url(#border_clip)" stroke="#000000" stroke-linecap="round" stroke-width="1" x1="39.0" x2="39.0" y1="77.003" y2="77.003" /><line clip-path="url(#border_clip)" stroke="#000000" stroke-linecap="round" stroke-width="1" x1="70.167" x2="70.167" y1="77.003" y2="77.003" /><line clip-path="url(#border_clip)" stroke="#000000" stroke-linecap="round" stroke-width="1" x1="70.167" x2="85.75" y1="77.003" y2="68.006" /><line clip-path="url(#border_clip)" stroke="#000000" stroke-linecap="round" stroke-width="1" x1="85.75" x2="85.75" y1="68.006" y2="50.012" /><line clip-path="url(#border_clip)" stroke="#000000" stroke-linecap="round" stroke-width="1" x1="85.75" x2="70.167" y1="50.012" y2="41.015" /><line clip-path="url(#border_clip)" stroke="#000000" stroke-linecap="round" stroke-width="1" x1="70.167" x2="54.583" y1="41.015" y2="50.012" /><line clip-path="url(#border_clip)" stroke="#000000" stroke-linecap="round" stroke-width="1" x1="54.583" x2="54.583" y1="50.012" y2="68.006" /><line clip-path="url(#border_clip)" stroke="#000000" stroke-linecap="round" stroke-width="1" x1="54.583" x2="70.167" y1="68.006" y2="77.003" /><polygon clip-path="url(#border_clip)" fill="#faebd7" fill-rule="evenodd" points="70.167,77.003 85.75,68.006 85.75,50.012 70.167,41.015 54.583,50.012 54.583,68.006 70.167,77.003" /><line clip-path="url(#border_clip)" stroke="#000000" stroke-linecap="round" stroke-width="1" x1="70.167" x2="85.75" y1="77.003" y2="68.006" /><line clip-path="url(#border_clip)" stroke="#000000" stroke-linecap="round" stroke-width="1" x1="85.75" x2="85.75" y1="68.006" y2="50.012" /><line clip-path="url(#border_clip)" stroke="#000000" stroke-linecap="round" stroke-width="1" x1="85.75" x2="70.167" y1="50.012" y2="41.015" /><line clip-path="url(#border_clip)" stroke="#000000" stroke-linecap="round" stroke-width="1" x1="70.167" x2="54.583" y1="41.015" y2="50.012" /><line clip-path="url(#border_clip)" stroke="#000000" stroke-linecap="round" stroke-width="1" x1="54.583" x2="54.583" y1="50.012" y2="68.006" /><line clip-path="url(#border_clip)" stroke="#000000" stroke-linecap="round" stroke-width="1" x1="54.583" x2="70.167" y1="68.006" y2="77.003" /><line clip-path="url(#border_clip)" stroke="#000000" stroke-linecap="round" stroke-width="1" x1="70.167" x2="70.167" y1="77.003" y2="77.003" /><line clip-path="url(#border_clip)" stroke="#000000" stroke-linecap="round" stroke-width="1" x1="101.333" x2="101.333" y1="77.003" y2="77.003" /><line clip-path="url(#border_clip)" stroke="#000000" stroke-linecap="round" stroke-width="1" x1="101.333" x2="116.917" y1="77.003" y2="68.006" /><line clip-path="url(#border_clip)" stroke="#000000" stroke-linecap="round" stroke-width="1" x1="116.917" x2="116.917" y1="68.006" y2="50.012" /><line clip-path="url(#border_clip)" stroke="#000000" stroke-linecap="round" stroke-width="1" x1="116.917" x2="101.333" y1="50.012" y2="41.015" /><line clip-path="url(#border_clip)" stroke="#000000" stroke-linecap="round" stroke-width="1" x1="101.333" x2="85.75" y1="41.015" y2="50.012" /><line clip-path="url(#border_clip)" stroke="#000000" stroke-linecap="round" stroke-width="1" x1="85.75" x2="85.75" y1="50.012" y2="68.006" /><line clip-path="url(#border_clip)" stroke="#000000" stroke-linecap="round" stroke-width="1" x1="85.75" x2="101.333" y1="68.006" y2="77.003" /><polygon clip-path="url(#border_clip)" fill="#faebd7" fill-rule="evenodd" points="101.333,77.003 116.917,68.006 116.917,50.012 101.333,41.015 85.75,50.012 85.75,68.006 101.333,77.003" /><line clip-path="url(#border_clip)" stroke="#000000" stroke-linecap="round" stroke-width="1" x1="101.333" x2="116.917" y1="77.003" y2="68.006" /><line clip-path="url(#border_clip)" stroke="#000000" stroke-linecap="round" stroke-width="1" x1="116.917" x2="116.917" y1="68.006" y2="50.012" /><line clip-path="url(#border_clip)" stroke="#000000" stroke-linecap="round" stroke-width="1" x1="116.917" x2="101.333" y1="50.012" y2="41.015" /><line clip-path="url(#border_clip)" stroke="#000000" stroke-linecap="round" stroke-width="1" x1="101.333" x2="85.75" y1="41.015" y2="50.012" /><line clip-path="url(#border_clip)" stroke="#000000" stroke-linecap="round" stroke-width="1" x1="85.75" x2="85.75" y1="50.012" y2="68.006" /><line clip-path="url(#border_clip)" stroke="#000000" stroke-linecap="round" stroke-width="1" x1="85.75" x2="101.333" y1="68.006" y2="77.003" /><line clip-path="url(#border_clip)" stroke="#000000" stroke-linecap="round" stroke-width="1" x1="101.333" x2="101.333" y1="77.003" y2="77.003" /><line clip-path="url(#border_clip)" stroke="#000000" stroke-linecap="round" stroke-width="1" x1="132.5" x2="132.5" y1="77.003" y2="77.003" /><line clip-path="url(#border_clip)" stroke="#000000" stroke-linecap="round" stroke-width="1" x1="132.5" x2="148.083" y1="77.003" y2="68.006" /><line clip-path="url(#border_clip)" stroke="#000000" stroke-linecap="round" stroke-width="1" x1="148.083" x2="148.083" y1="68.006" y2="50.012" /><line clip-path="url(#border_clip)" stroke="#000000" stroke-linecap="round" stroke-width="1" x1="148.083" x2="132.5" y1="50.012" y2="41.015" /><line clip-path="url(#border_clip)" stroke="#000000" stroke-linecap="round" stroke-width="1" x1="132.5" x2="116.917" y1="41.015" y2="50.012" /><line clip-path="url(#border_clip)" stroke="#000000" stroke-linecap="round" stroke-width="1" x1="116.917" x2="116.917" y1="50.012" y2="68.006" /><line clip-path="url(#border_clip)" stroke="#000000" stroke-linecap="round" stroke-width="1" x1="116.917" x2="132.5" y1="68.006" y2="77.003" /><polygon clip-path="url(#border_clip)" fill="#faebd7" fill-rule="evenodd" points="132.5,77.003 148.083,68.006 148.083,50.012 132.5,41.015 116.917,50.012 116.917,68.006 132.5,77.003" /><line clip-path="url(#border_clip)" stroke="#000000" stroke-linecap="round" stroke-width="1" x1="132.5" x2="148.083" y1="77.003" y2="68.006" /><line clip-path="url(#border_clip)" stroke="#000000" stroke-linecap="round" stroke-width="1" x1="148.083" x2="148.083" y1="68.006" y2="50.012" /><line clip-path="url(#border_clip)" stroke="#000000" stroke-linecap="round" stroke-width="1" x1="148.083" x2="132.5" y1="50.012" y2="41.015" /><line clip-path="url(#border_clip)" stroke="#000000" stroke-linecap="round" stroke-width="1" x1="132.5" x2="116.917" y1="41.015" y2="50.012" /><line clip-path="url(#border_clip)" stroke="#000000" stroke-linecap="round" stroke-width="1" x1="116.917" x2="116.917" y1="50.012" y2="68.006" /><line clip-path="url(#border_clip)" stroke="#000000" stroke-linecap="round" stroke-width="1" x1="116.917" x2="132.5" y1="68.006" y2="77.003" /><line clip-path="url(#border_clip)" stroke="#000000" stroke-linecap="round" stroke-width="1" x1="132.5" x2="132.5" y1="77.003" y2="77.003" /><line clip-path="url(#border_clip)" stroke="#000000" stroke-linecap="round" stroke-width="1" x1="23.417" x2="23.417" y1="103.994" y2="103.994" /><line clip-path="url(#border_clip)" stroke="#000000" stroke-linecap="round" stroke-width="1" x1="23.417" x2="39.0" y1="103.994" y2="94.997" /><line clip-path="url(#border_clip)" stroke="#000000" stroke-linecap="round" stroke-width="1" x1="39.0" x2="39.0" y1="94.997" y2="77.003" /><line clip-path="url(#border_clip)" stroke="#000000" stroke-linecap="round" stroke-width="1" x1="39.0" x2="23.417" y1="77.003" y2="68.006" /><line clip-path="url(#border_clip)" stroke="#000000" stroke-linecap="round" stroke-width="1" x1="23.417" x2="7.833" y1="68.006" y2="77.003" /><line clip-path="url(#border_clip)" stroke="#000000" stroke-linecap="round" stroke-width="1" x1="7.833" x2="7.833" y1="77.003" y2="94.997" /><line clip-path="url(#border_clip)" stroke="#000000" stroke-linecap="round" stroke-width="1" x1="7.833" x2="23.417" y1="94.997" y2="103.994" /><polygon clip-path="url(#border_clip)" fill="#faebd7" fill-rule="evenodd" points="23.417,103.994 39.0,94.997 39.0,77.003 23.417,68.006 7.833,77.003 7.833,94.997 23.417,103.994" /><line clip-path="url(#border_clip)" stroke="#000000" stroke-linecap="round" stroke-width="1" x1="23.417" x2="39.0" y1="103.994" y2="94.997" /><line clip-path="url(#border_clip)" stroke="#000000" stroke-linecap="round" stroke-width="1" x1="39.0" x2="39.0" y1="94.997" y2="77.003" /><line clip-path="url(#border_clip)" stroke="#000000" stroke-linecap="round" stroke-width="1" x1="39.0" x2="23.417" y1="77.003" y2="68.006" /><line clip-path="url(#border_clip)" stroke="#000000" stroke-linecap="round" stroke-width="1" x1="23.417" x2="7.833" y1="68.006" y2="77.003" /><line clip-path="url(#border_clip)" stroke="#000000" stroke-linecap="round" stroke-width="1" x1="7.833" x2="7.833" y1="77.003" y2="94.997" /><line clip-path="url(#border_clip)" stroke="#000000" stroke-linecap="round" stroke-width="1" x1="7.833" x2="23.417" y1="94.997" y2="103.994" /><line clip-path="url(#border_clip)" stroke="#000000" stroke-linecap="round" stroke-width="1" x1="23.417" x2="23.417" y1="103.994" y2="103.994" /><line clip-path="url(#border_clip)" stroke="#000000" stroke-linecap="round" stroke-width="1" x1="54.583" x2="54.583" y1="103.994" y2="103.994" /><line clip-path="url(#border_clip)" stroke="#000000" stroke-linecap="round" stroke-width="1" x1="54.583" x2="70.167" y1="103.994" y2="94.997" /><line clip-path="url(#border_clip)" stroke="#000000" stroke-linecap="round" stroke-width="1" x1="70.167" x2="70.167" y1="94.997" y2="77.003" /><line clip-path="url(#border_clip)" stroke="#000000" stroke-linecap="round" stroke-width="1" x1="70.167" x2="54.583" y1="77.003" y2="68.006" /><line clip-path="url(#border_clip)" stroke="#000000" stroke-linecap="round" stroke-width="1" x1="54.583" x2="39.0" y1="68.006" y2="77.003" /><line clip-path="url(#border_clip)" stroke="#000000" stroke-linecap="round" stroke-width="1" x1="39.0" x2="39.0" y1="77.003" y2="94.997" /><line clip-path="url(#border_clip)" stroke="#000000" stroke-linecap="round" stroke-width="1" x1="39.0" x2="54.583" y1="94.997" y2="103.994" /><polygon clip-path="url(#border_clip)" fill="#faebd7" fill-rule="evenodd" points="54.583,103.994 70.167,94.997 70.167,77.003 54.583,68.006 39.0,77.003 39.0,94.997 54.583,103.994" /><line clip-path="url(#border_clip)" stroke="#000000" stroke-linecap="round" stroke-width="1" x1="54.583" x2="70.167" y1="103.994" y2="94.997" /><line clip-path="url(#border_clip)" stroke="#000000" stroke-linecap="round" stroke-width="1" x1="70.167" x2="70.167" y1="94.997" y2="77.003" /><line clip-path="url(#border_clip)" stroke="#000000" stroke-linecap="round" stroke-width="1" x1="70.167" x2="54.583" y1="77.003" y2="68.006" /><line clip-path="url(#border_clip)" stroke="#000000" stroke-linecap="round" stroke-width="1" x1="54.583" x2="39.0" y1="68.006" y2="77.003" /><line clip-path="url(#border_clip)" stroke="#000000" stroke-linecap="round" stroke-width="1" x1="39.0" x2="39.0" y1="77.003" y2="94.997" /><line clip-path="url(#border_clip)" stroke="#000000" stroke-linecap="round" stroke-width="1" x1="39.0" x2="54.583" y1="94.997" y2="103.994" /><line clip-path="url(#border_clip)" stroke="#000000" stroke-linecap="round" stroke-width="1" x1="54.583" x2="54.583" y1="103.994" y2="103.994" /><line clip-path="url(#border_clip)" stroke="#000000" stroke-linecap="round" stroke-width="1" x1="85.75" x2="85.75" y1="103.994" y2="103.994" /><line clip-path="url(#border_clip)" stroke="#000000" stroke-linecap="round" stroke-width="1" x1="85.75" x2="101.333" y1="103.994" y2="94.997" /><line clip-path="url(#border_clip)" stroke="#000000" stroke-linecap="round" stroke-width="1" x1="101.333" x2="101.333" y1="94.997" y2="77.003" /><line clip-path="url(#border_clip)" stroke="#000000" stroke-linecap="round" stroke-width="1" x1="101.333" x2="85.75" y1="77.003" y2="68.006" /><line clip-path="url(#border_clip)" stroke="#000000" stroke-linecap="round" stroke-width="1" x1="85.75" x2="70.167" y1="68.006" y2="77.003" /><line clip-path="url(#border_clip)" stroke="#000000" stroke-linecap="round" stroke-width="1" x1="70.167" x2="70.167" y1="77.003" y2="94.997" /><line clip-path="url(#border_clip)" stroke="#000000" stroke-linecap="round" stroke-width="1" x1="70.167" x2="85.75" y1="94.997" y2="103.994" /><polygon clip-path="url(#border_clip)" fill="#faebd7" fill-rule="evenodd" points="85.75,103.994 101.333,94.997 101.333,77.003 85.75,68.006 70.167,77.003 70.167,94.997 85.75,103.994" /><line clip-path="url(#border_clip)" stroke="#000000" stroke-linecap="round" stroke-width="1" x1="85.75" x2="101.333" y1="103.994" y2="94.997" /><line clip-path="url(#border_clip)" stroke="#000000" stroke-linecap="round" stroke-width="1" x1="101.333" x2="101.333" y1="94.997" y2="77.003" /><line clip-path="url(#border_clip)" stroke="#000000" stroke-linecap="round" stroke-width="1" x1="101.333" x2="85.75" y1="77.003" y2="68.006" /><line clip-path="url(#border_clip)" stroke="#000000" stroke-linecap="round" stroke-width="1" x1="85.75" x2="70.167" y1="68.006" y2="77.003" /><line clip-path="url(#border_clip)" stroke="#000000" stroke-linecap="round" stroke-width="1" x1="70.167" x2="70.167" y1="77.003" y2="94.997" /><line clip-path="url(#border_clip)" stroke="#000000" stroke-linecap="round" stroke-width="1" x1="70.167" x2="85.75" y1="94.997" y2="103.994" /><line clip-path="url(#border_clip)" stroke="#000000" stroke-linecap="round" stroke-width="1" x1="85.75" x2="85.75" y1="103.994" y2="103.994" /><line clip-path="url(#border_clip)" stroke="#000000" stroke-linecap="round" stroke-width="1" x1="116.917" x2="116.917" y1="103.994" y2="103.994" /><line clip-path="url(#border_clip)" stroke="#000000" stroke-linecap="round" stroke-width="1" x1="116.917" x2="132.5" y1="103.994" y2="94.997" /><line clip-path="url(#border_clip)" stroke="#000000" stroke-linecap="round" stroke-width="1" x1="132.5" x2="132.5" y1="94.997" y2="77.003" /><line clip-path="url(#border_clip)" stroke="#000000" stroke-linecap="round" stroke-width="1" x1="132.5" x2="116.917" y1="77.003" y2="68.006" /><line clip-path="url(#border_clip)" stroke="#000000" stroke-linecap="round" stroke-width="1" x1="116.917" x2="101.333" y1="68.006" y2="77.003" /><line clip-path="url(#border_clip)" stroke="#000000" stroke-linecap="round" stroke-width="1" x1="101.333" x2="101.333" y1="77.003" y2="94.997" /><line clip-path="url(#border_clip)" stroke="#000000" stroke-linecap="round" stroke-width="1" x1="101.333" x2="116.917" y1="94.997" y2="103.994" /><polygon clip-path="url(#border_clip)" fill="#faebd7" fill-rule="evenodd" points="116.917,103.994 132.5,94.997 132.5,77.003 116.917,68.006 101.333,77.003 101.333,94.997 116.917,103.994" /><line clip-path="url(#border_clip)" stroke="#000000" stroke-linecap="round" stroke-width="1" x1="116.917" x2="132.5" y1="103.994" y2="94.997" /><line clip-path="url(#border_clip)" stroke="#000000" stroke-linecap="round" stroke-width="1" x1="132.5" x2="132.5" y1="94.997" y2="77.003" /><line clip-path="url(#border_clip)" stroke="#000000" stroke-linecap="round" stroke-width="1" x1="132.5" x2="116.917" y1="77.003" y2="68.006" /><line clip-path="url(#border_clip)" stroke="#000000" stroke-linecap="round" stroke-width="1" x1="116.917" x2="101.333" y1="68.006" y2="77.003" /><line clip-path="url(#border_clip)" stroke="#000000" stroke-linecap="round" stroke-width="1" x1="101.333" x2="101.333" y1="77.003" y2="94.997" /><line clip-path="url(#border_clip)" stroke="#000000" stroke-linecap="round" stroke-width="1" x1="101.333" x2="116.917" y1="94.997" y2="103.994" /><line clip-path="url(#border_clip)" stroke="#000000" stroke-linecap="round" stroke-width="1" x1="116.917" x2="116.917" y1="103.994" y2="103.994" /><line clip-path="url(#border_clip)" stroke="#000000" stroke-linecap="round" stroke-width="1" x1="148.083" x2="148.083" y1="103.994" y2="103.994" /><line clip-path="url(#border_clip)" stroke="#000000" stroke-linecap="round" stroke-width="1" x1="148.083" x2="163.667" y1="103.994" y2="94.997" /><line clip-path="url(#border_clip)" stroke="#000000" stroke-linecap="round" stroke-width="1" x1="163.667" x2="163.667" y1="94.997" y2="77.003" /><line clip-path="url(#border_clip)" stroke="#000000" stroke-linecap="round" stroke-width="1" x1="163.667" x2="148.083" y1="77.003" y2="68.006" /><line clip-path="url(#border_clip)" stroke="#000000" stroke-linecap="round" stroke-width="1" x1="148.083" x2="132.5" y1="68.006" y2="77.003" /><line clip-path="url(#border_clip)" stroke="#000000" stroke-linecap="round" stroke-width="1" x1="132.5" x2="132.5" y1="77.003" y2="94.997" /><line clip-path="url(#border_clip)" stroke="#000000" stroke-linecap="round" stroke-width="1" x1="132.5" x2="148.083" y1="94.997" y2="103.994" /><polygon clip-path="url(#border_clip)" fill="#faebd7" fill-rule="evenodd" points="148.083,103.994 163.667,94.997 163.667,77.003 148.083,68.006 132.5,77.003 132.5,94.997 148.083,103.994" /><line clip-path="url(#border_clip)" stroke="#000000" stroke-linecap="round" stroke-width="1" x1="148.083" x2="163.667" y1="103.994" y2="94.997" /><line clip-path="url(#border_clip)" stroke="#000000" stroke-linecap="round" stroke-width="1" x1="163.667" x2="163.667" y1="94.997" y2="77.003" /><line clip-path="url(#border_clip)" stroke="#000000" stroke-linecap="round" stroke-width="1" x1="163.667" x2="148.083" y1="77.003" y2="68.006" /><line clip-path="url(#border_clip)" stroke="#000000" stroke-linecap="round" stroke-width="1" x1="148.083" x2="132.5" y1="68.006" y2="77.003" /><line clip-path="url(#border_clip)" stroke="#000000" stroke-linecap="round" stroke-width="1" x1="132.5" x2="132.5" y1="77.003" y2="94.997" /><line clip-path="url(#border_clip)" stroke="#000000" stroke-linecap="round" stroke-width="1" x1="132.5" x2="148.083" y1="94.997" y2="103.994" /><line clip-path="url(#border_clip)" stroke="#000000" stroke-linecap="round" stroke-width="1" x1="148.083" x2="148.083" y1="103.994" y2="103.994" /><line clip-path="url(#border_clip)" stroke="#000000" stroke-linecap="round" stroke-width="1" x1="39.0" x2="39.0" y1="130.985" y2="130.985" /><line clip-path="url(#border_clip)" stroke="#000000" stroke-linecap="round" stroke-width="1" x1="39.0" x2="54.583" y1="130.985" y2="121.988" /><line clip-path="url(#border_clip)" stroke="#000000" stroke-linecap="round" stroke-width="1" x1="54.583" x2="54.583" y1="121.988" y2="103.994" /><line clip-path="url(#border_clip)" stroke="#000000" stroke-linecap="round" stroke-width="1" x1="54.583" x2="39.0" y1="103.994" y2="94.997" /><line clip-path="url(#border_clip)" stroke="#000000" stroke-linecap="round" stroke-width="1" x1="39.0" x2="23.417" y1="94.997" y2="103.994" /><line clip-path="url(#border_clip)" stroke="#000000" stroke-linecap="round" stroke-width="1" x1="23.417" x2="23.417" y1="103.994" y2="121.988" /><line clip-path="url(#border_clip)" stroke="#000000" stroke-linecap="round" stroke-width="1" x1="23.417" x2="39.0" y1="121.988" y2="130.985" /><polygon clip-path="url(#border_clip)" fill="#faebd7" fill-rule="evenodd" points="39.0,130.985 54.583,121.988 54.583,103.994 39.0,94.997 23.417,103.994 23.417,121.988 39.0,130.985" /><line clip-path="url(#border_clip)" stroke="#000000" stroke-linecap="round" stroke-width="1" x1="39.0" x2="54.583" y1="130.985" y2="121.988" /><line clip-path="url(#border_clip)" stroke="#000000" stroke-linecap="round" stroke-width="1" x1="54.583" x2="54.583" y1="121.988" y2="103.994" /><line clip-path="url(#border_clip)" stroke="#000000" stroke-linecap="round" stroke-width="1" x1="54.583" x2="39.0" y1="103.994" y2="94.997" /><line clip-path="url(#border_clip)" stroke="#000000" stroke-linecap="round" stroke-width="1" x1="39.0" x2="23.417" y1="94.997" y2="103.994" /><line clip-path="url(#border_clip)" stroke="#000000" stroke-linecap="round" stroke-width="1" x1="23.417" x2="23.417" y1="103.994" y2="121.988" /><line clip-path="url(#border_clip)" stroke="#000000" stroke-linecap="round" stroke-width="1" x1="23.417" x2="39.0" y1="121.988" y2="130.985" /><line clip-path="url(#border_clip)" stroke="#000000" stroke-linecap="round" stroke-width="1" x1="39.0" x2="39.0" y1="130.985" y2="130.985" /><line clip-path="url(#border_clip)" stroke="#000000" stroke-linecap="round" stroke-width="1" x1="70.167" x2="70.167" y1="130.985" y2="130.985" /><line clip-path="url(#border_clip)" stroke="#000000" stroke-linecap="round" stroke-width="1" x1="70.167" x2="85.75" y1="130.985" y2="121.988" /><line clip-path="url(#border_clip)" stroke="#000000" stroke-linecap="round" stroke-width="1" x1="85.75" x2="85.75" y1="121.988" y2="103.994" /><line clip-path="url(#border_clip)" stroke="#000000" stroke-linecap="round" stroke-width="1" x1="85.75" x2="70.167" y1="103.994" y2="94.997" /><line clip-path="url(#border_clip)" stroke="#000000" stroke-linecap="round" stroke-width="1" x1="70.167" x2="54.583" y1="94.997" y2="103.994" /><line clip-path="url(#border_clip)" stroke="#000000" stroke-linecap="round" stroke-width="1" x1="54.583" x2="54.583" y1="103.994" y2="121.988" /><line clip-path="url(#border_clip)" stroke="#000000" stroke-linecap="round" stroke-width="1" x1="54.583" x2="70.167" y1="121.988" y2="130.985" /><polygon clip-path="url(#border_clip)" fill="#faebd7" fill-rule="evenodd" points="70.167,130.985 85.75,121.988 85.75,103.994 70.167,94.997 54.583,103.994 54.583,121.988 70.167,130.985" /><line clip-path="url(#border_clip)" stroke="#000000" stroke-linecap="round" stroke-width="1" x1="70.167" x2="85.75" y1="130.985" y2="121.988" /><line clip-path="url(#border_clip)" stroke="#000000" stroke-linecap="round" stroke-width="1" x1="85.75" x2="85.75" y1="121.988" y2="103.994" /><line clip-path="url(#border_clip)" stroke="#000000" stroke-linecap="round" stroke-width="1" x1="85.75" x2="70.167" y1="103.994" y2="94.997" /><line clip-path="url(#border_clip)" stroke="#000000" stroke-linecap="round" stroke-width="1" x1="70.167" x2="54.583" y1="94.997" y2="103.994" /><line clip-path="url(#border_clip)" stroke="#000000" stroke-linecap="round" stroke-width="1" x1="54.583" x2="54.583" y1="103.994" y2="121.988" /><line clip-path="url(#border_clip)" stroke="#000000" stroke-linecap="round" stroke-width="1" x1="54.583" x2="70.167" y1="121.988" y2="130.985" /><line clip-path="url(#border_clip)" stroke="#000000" stroke-linecap="round" stroke-width="1" x1="70.167" x2="70.167" y1="130.985" y2="130.985" /><line clip-path="url(#border_clip)" stroke="#000000" stroke-linecap="round" stroke-width="1" x1="101.333" x2="101.333" y1="130.985" y2="130.985" /><line clip-path="url(#border_clip)" stroke="#000000" stroke-linecap="round" stroke-width="1" x1="101.333" x2="116.917" y1="130.985" y2="121.988" /><line clip-path="url(#border_clip)" stroke="#000000" stroke-linecap="round" stroke-width="1" x1="116.917" x2="116.917" y1="121.988" y2="103.994" /><line clip-path="url(#border_clip)" stroke="#000000" stroke-linecap="round" stroke-width="1" x1="116.917" x2="101.333" y1="103.994" y2="94.997" /><line clip-path="url(#border_clip)" stroke="#000000" stroke-linecap="round" stroke-width="1" x1="101.333" x2="85.75" y1="94.997" y2="103.994" /><line clip-path="url(#border_clip)" stroke="#000000" stroke-linecap="round" stroke-width="1" x1="85.75" x2="85.75" y1="103.994" y2="121.988" /><line clip-path="url(#border_clip)" stroke="#000000" stroke-linecap="round" stroke-width="1" x1="85.75" x2="101.333" y1="121.988" y2="130.985" /><polygon clip-path="url(#border_clip)" fill="#faebd7" fill-rule="evenodd" points="101.333,130.985 116.917,121.988 116.917,103.994 101.333,94.997 85.75,103.994 85.75,121.988 101.333,130.985" /><line clip-path="url(#border_clip)" stroke="#000000" stroke-linecap="round" stroke-width="1" x1="101.333" x2="116.917" y1="130.985" y2="121.988" /><line clip-path="url(#border_clip)" stroke="#000000" stroke-linecap="round" stroke-width="1" x1="116.917" x2="116.917" y1="121.988" y2="103.994" /><line clip-path="url(#border_clip)" stroke="#000000" stroke-linecap="round" stroke-width="1" x1="116.917" x2="101.333" y1="103.994" y2="94.997" /><line clip-path="url(#border_clip)" stroke="#000000" stroke-linecap="round" stroke-width="1" x1="101.333" x2="85.75" y1="94.997" y2="103.994" /><line clip-path="url(#border_clip)" stroke="#000000" stroke-linecap="round" stroke-width="1" x1="85.75" x2="85.75" y1="103.994" y2="121.988" /><line clip-path="url(#border_clip)" stroke="#000000" stroke-linecap="round" stroke-width="1" x1="85.75" x2="101.333" y1="121.988" y2="130.985" /><line clip-path="url(#border_clip)" stroke="#000000" stroke-linecap="round" stroke-width="1" x1="101.333" x2="101.333" y1="130.985" y2="130.985" /><line clip-path="url(#border_clip)" stroke="#000000" stroke-linecap="round" stroke-width="1" x1="132.5" x2="132.5" y1="130.985" y2="130.985" /><line clip-path="url(#border_clip)" stroke="#000000" stroke-linecap="round" stroke-width="1" x1="132.5" x2="148.083" y1="130.985" y2="121.988" /><line clip-path="url(#border_clip)" stroke="#000000" stroke-linecap="round" stroke-width="1" x1="148.083" x2="148.083" y1="121.988" y2="103.994" /><line clip-path="url(#border_clip)" stroke="#000000" stroke-linecap="round" stroke-width="1" x1="148.083" x2="132.5" y1="103.994" y2="94.997" /><line clip-path="url(#border_clip)" stroke="#000000" stroke-linecap="round" stroke-width="1" x1="132.5" x2="116.917" y1="94.997" y2="103.994" /><line clip-path="url(#border_clip)" stroke="#000000" stroke-linecap="round" stroke-width="1" x1="116.917" x2="116.917" y1="103.994" y2="121.988" /><line clip-path="url(#border_clip)" stroke="#000000" stroke-linecap="round" stroke-width="1" x1="116.917" x2="132.5" y1="121.988" y2="130.985" /><polygon clip-path="url(#border_clip)" fill="#faebd7" fill-rule="evenodd" points="132.5,130.985 148.083,121.988 148.083,103.994 132.5,94.997 116.917,103.994 116.917,121.988 132.5,130.985" /><line clip-path="url(#border_clip)" stroke="#000000" stroke-linecap="round" stroke-width="1" x1="132.5" x2="148.083" y1="130.985" y2="121.988" /><line clip-path="url(#border_clip)" stroke="#000000" stroke-linecap="round" stroke-width="1" x1="148.083" x2="148.083" y1="121.988" y2="103.994" /><line clip-path="url(#border_clip)" stroke="#000000" stroke-linecap="round" stroke-width="1" x1="148.083" x2="132.5" y1="103.994" y2="94.997" /><line clip-path="url(#border_clip)" stroke="#000000" stroke-linecap="round" stroke-width="1" x1="132.5" x2="116.917" y1="94.997" y2="103.994" /><line clip-path="url(#border_clip)" stroke="#000000" stroke-linecap="round" stroke-width="1" x1="116.917" x2="116.917" y1="103.994" y2="121.988" /><line clip-path="url(#border_clip)" stroke="#000000" stroke-linecap="round" stroke-width="1" x1="116.917" x2="132.5" y1="121.988" y2="130.985" /><line clip-path="url(#border_clip)" stroke="#000000" stroke-linecap="round" stroke-width="1" x1="132.5" x2="132.5" y1="130.985" y2="130.985" /><line clip-path="url(#border_clip)" stroke="#000000" stroke-linecap="round" stroke-width="1" x1="54.583" x2="54.583" y1="157.976" y2="157.976" /><line clip-path="url(#border_clip)" stroke="#000000" stroke-linecap="round" stroke-width="1" x1="54.583" x2="70.167" y1="157.976" y2="148.979" /><line clip-path="url(#border_clip)" stroke="#000000" stroke-linecap="round" stroke-width="1" x1="70.167" x2="70.167" y1="148.979" y2="130.985" /><line clip-path="url(#border_clip)" stroke="#000000" stroke-linecap="round" stroke-width="1" x1="70.167" x2="54.583" y1="130.985" y2="121.988" /><line clip-path="url(#border_clip)" stroke="#000000" stroke-linecap="round" stroke-width="1" x1="54.583" x2="39.0" y1="121.988" y2="130.985" /><line clip-path="url(#border_clip)" stroke="#000000" stroke-linecap="round" stroke-width="1" x1="39.0" x2="39.0" y1="130.985" y2="148.979" /><line clip-path="url(#border_clip)" stroke="#000000" stroke-linecap="round" stroke-width="1" x1="39.0" x2="54.583" y1="148.979" y2="157.976" /><polygon clip-path="url(#border_clip)" fill="#faebd7" fill-rule="evenodd" points="54.583,157.976 70.167,148.979 70.167,130.985 54.583,121.988 39.0,130.985 39.0,148.979 54.583,157.976" /><line clip-path="url(#border_clip)" stroke="#000000" stroke-linecap="round" stroke-width="1" x1="54.583" x2="70.167" y1="157.976" y2="148.979" /><line clip-path="url(#border_clip)" stroke="#000000" stroke-linecap="round" stroke-width="1" x1="70.167" x2="70.167" y1="148.979" y2="130.985" /><line clip-path="url(#border_clip)" stroke="#000000" stroke-linecap="round" stroke-width="1" x1="70.167" x2="54.583" y1="130.985" y2="121.988" /><line clip-path="url(#border_clip)" stroke="#000000" stroke-linecap="round" stroke-width="1" x1="54.583" x2="39.0" y1="121.988" y2="130.985" /><line clip-path="url(#border_clip)" stroke="#000000" stroke-linecap="round" stroke-width="1" x1="39.0" x2="39.0" y1="130.985" y2="148.979" /><line clip-path="url(#border_clip)" stroke="#000000" stroke-linecap="round" stroke-width="1" x1="39.0" x2="54.583" y1="148.979" y2="157.976" /><line clip-path="url(#border_clip)" stroke="#000000" stroke-linecap="round" stroke-width="1" x1="54.583" x2="54.583" y1="157.976" y2="157.976" /><line clip-path="url(#border_clip)" stroke="#000000" stroke-linecap="round" stroke-width="1" x1="85.75" x2="85.75" y1="157.976" y2="157.976" /><line clip-path="url(#border_clip)" stroke="#000000" stroke-linecap="round" stroke-width="1" x1="85.75" x2="101.333" y1="157.976" y2="148.979" /><line clip-path="url(#border_clip)" stroke="#000000" stroke-linecap="round" stroke-width="1" x1="101.333" x2="101.333" y1="148.979" y2="130.985" /><line clip-path="url(#border_clip)" stroke="#000000" stroke-linecap="round" stroke-width="1" x1="101.333" x2="85.75" y1="130.985" y2="121.988" /><line clip-path="url(#border_clip)" stroke="#000000" stroke-linecap="round" stroke-width="1" x1="85.75" x2="70.167" y1="121.988" y2="130.985" /><line clip-path="url(#border_clip)" stroke="#000000" stroke-linecap="round" stroke-width="1" x1="70.167" x2="70.167" y1="130.985" y2="148.979" /><line clip-path="url(#border_clip)" stroke="#000000" stroke-linecap="round" stroke-width="1" x1="70.167" x2="85.75" y1="148.979" y2="157.976" /><polygon clip-path="url(#border_clip)" fill="#faebd7" fill-rule="evenodd" points="85.75,157.976 101.333,148.979 101.333,130.985 85.75,121.988 70.167,130.985 70.167,148.979 85.75,157.976" /><line clip-path="url(#border_clip)" stroke="#000000" stroke-linecap="round" stroke-width="1" x1="85.75" x2="101.333" y1="157.976" y2="148.979" /><line clip-path="url(#border_clip)" stroke="#000000" stroke-linecap="round" stroke-width="1" x1="101.333" x2="101.333" y1="148.979" y2="130.985" /><line clip-path="url(#border_clip)" stroke="#000000" stroke-linecap="round" stroke-width="1" x1="101.333" x2="85.75" y1="130.985" y2="121.988" /><line clip-path="url(#border_clip)" stroke="#000000" stroke-linecap="round" stroke-width="1" x1="85.75" x2="70.167" y1="121.988" y2="130.985" /><line clip-path="url(#border_clip)" stroke="#000000" stroke-linecap="round" stroke-width="1" x1="70.167" x2="70.167" y1="130.985" y2="148.979" /><line clip-path="url(#border_clip)" stroke="#000000" stroke-linecap="round" stroke-width="1" x1="70.167" x2="85.75" y1="148.979" y2="157.976" /><line clip-path="url(#border_clip)" stroke="#000000" stroke-linecap="round" stroke-width="1" x1="85.75" x2="85.75" y1="157.976" y2="157.976" /><line clip-path="url(#border_clip)" stroke="#000000" stroke-linecap="round" stroke-width="1" x1="116.917" x2="116.917" y1="157.976" y2="157.976" /><line clip-path="url(#border_clip)" stroke="#000000" stroke-linecap="round" stroke-width="1" x1="116.917" x2="132.5" y1="157.976" y2="148.979" /><line clip-path="url(#border_clip)" stroke="#000000" stroke-linecap="round" stroke-width="1" x1="132.5" x2="132.5" y1="148.979" y2="130.985" /><line clip-path="url(#border_clip)" stroke="#000000" stroke-linecap="round" stroke-width="1" x1="132.5" x2="116.917" y1="130.985" y2="121.988" /><line clip-path="url(#border_clip)" stroke="#000000" stroke-linecap="round" stroke-width="1" x1="116.917" x2="101.333" y1="121.988" y2="130.985" /><line clip-path="url(#border_clip)" stroke="#000000" stroke-linecap="round" stroke-width="1" x1="101.333" x2="101.333" y1="130.985" y2="148.979" /><line clip-path="url(#border_clip)" stroke="#000000" stroke-linecap="round" stroke-width="1" x1="101.333" x2="116.917" y1="148.979" y2="157.976" /><polygon clip-path="url(#border_clip)" fill="#faebd7" fill-rule="evenodd" points="116.917,157.976 132.5,148.979 132.5,130.985 116.917,121.988 101.333,130.985 101.333,148.979 116.917,157.976" /><line clip-path="url(#border_clip)" stroke="#000000" stroke-linecap="round" stroke-width="1" x1="116.917" x2="132.5" y1="157.976" y2="148.979" /><line clip-path="url(#border_clip)" stroke="#000000" stroke-linecap="round" stroke-width="1" x1="132.5" x2="132.5" y1="148.979" y2="130.985" /><line clip-path="url(#border_clip)" stroke="#000000" stroke-linecap="round" stroke-width="1" x1="132.5" x2="116.917" y1="130.985" y2="121.988" /><line clip-path="url(#border_clip)" stroke="#000000" stroke-linecap="round" stroke-width="1" x1="116.917" x2="101.333" y1="121.988" y2="130.985" /><line clip-path="url(#border_clip)" stroke="#000000" stroke-linecap="round" stroke-width="1" x1="101.333" x2="101.333" y1="130.985" y2="148.979" /><line clip-path="url(#border_clip)" stroke="#000000" stroke-linecap="round" stroke-width="1" x1="101.333" x2="116.917" y1="148.979" y2="157.976" /><line clip-path="url(#border_clip)" stroke="#000000" stroke-linecap="round" stroke-width="1" x1="116.917" x2="116.917" y1="157.976" y2="157.976" /></svg>