<?xml version="1.0" encoding="utf-8" ?>
<svg baseProfile="full" height="32px" version="1.1" width="32px" xmlns="http://www.w3.org/2000/svg" xmlns:ev="http://www.w3.org/2001/xml-events" xmlns:xlink="http://www.w3.org/1999/xlink"><defs><clipPath id="border_clip"><rect height="32" width="32" x="0" y="0" /></clipPath></defs><line clip-path="url(#border_clip)" stroke="#7f7f7f" stroke-linecap="round" stroke-width="1" x1="1.0" x2="1.0" y1="1.0" y2="1.0" /><line clip-path="url(#border_clip)" stroke="#7f7f7f" stroke-linecap="round" stroke-width="1" x1="1.0" x2="16.0" y1="1.0" y2="1.0" /><line clip-path="url(#border_clip)" stroke="#7f7f7f" stroke-linecap="round" stroke-width="1" x1="16.0" x2="16.0" y1="1.0" y2="16.0" /><line clip-path="url(#border_clip)" stroke="#7f7f7f" stroke-linecap="round" stroke-width="1" x1="16.0" x2="1.0" y1="16.0" y2="16.0" /><line clip-path="url(#border_clip)" stroke="#7f7f7f" stroke-linecap="round" stroke-width="1" x1="1.0" x2="1.0" y1="16.0" y2="1.0" /><polygon clip-path="url(#border_clip)" fill="#7f7f7f" fill-rule="evenodd" points="1.0,1.0 16.0,1.0 16.0,16.0 1.0,16.0 1.0,1.0" /><line clip-path="url(#border_clip)" stroke="#7f7f7f" stroke-linecap="round" stroke-width="1" x1="1.0" x2="16.0" y1="1.0" y2="1.0" /><line clip-path="url(#border_clip)" stroke="#7f7f7f" stroke-linecap="round" stroke-width="1" x1="16.0" x2="16.0" y1="1.0" y2="16.0" /><line clip-path="url(#border_clip)" stroke="#7f7f7f" stroke-linecap="round" stroke-width="1" x1="16.0" x2="1.0" y1="16.0" y2="16.0" /><line clip-path="url(#border_clip)" stroke="#7f7f7f" stroke-linecap="round" stroke-width="1" x1="1.0" x2="1.0" y1="16.0" y2="1.0" /><line clip-path="url(#border_clip)" stroke="#7f7f7f" stroke-linecap="round" stroke-width="1" x1="1.0" x2="1.0" y1="1.0" y2="1.0" /><line clip-path="url(#border_clip)" stroke="#7f7f7f" stroke-linecap="round" stroke-width="1" x1="3.25" x2="3.25" y1="3.25" y2="3.25" /><line clip-path="url(#border_clip)" stroke="#7f7f7f" stroke-linecap="round" stroke-width="1" x1="3.25" x2="13.75" y1="3.25" y2="3.25" /><line clip-path="url(#border_clip)" stroke="#7f7f7f" stroke-linecap="round" stroke-width="1" x1="13.75" x2="13.75" y1="3.25" y2="13.75" /><line clip-path="url(#border_clip)" stroke="#7f7f7f" stroke-linecap="round" stroke-width="1" x1="13.75" x2="3.25" y1="13.75" y2="13.75" /><line clip-path="url(#border_clip)" stroke="#7f7f7f" stroke-linecap="round" stroke-width="1" x1="3.25" x2="3.25" y1="13.75" y2="3.25" /><polygon clip-path="url(#border_clip)" fill="#6b1d81" fill-rule="evenodd" points="3.25,3.25 13.75,3.25 13.75,13.75 3.25,13.75 3.25,3.25" /><line clip-path="url(#border_clip)" stroke="#7f7f7f" stroke-linecap="round" stroke-width="1" x1="3.25" x2="13.75" y1="3.25" y2="3.25" /><line clip-path="url(#border_clip)" stroke="#7f7f7f" stroke-linecap="round" stroke-width="1" x1="13.75" x2="13.75" y1="3.25" y2="13.75" /><line clip-path="url(#border_clip)" stroke="#7f7f7f" stroke-linecap="round" stroke-width="1" x1="13.75" x2="3.25" y1="13.75" y2="13.75" /><line clip-path="url(#border_clip)" stroke="#7f7f7f" stroke-linecap="round" stroke-width="1" x1="3.25" x2="3.25" y1="13.75" y2="3.25" /><line clip-path="url(#border_clip)" stroke="#7f7f7f" stroke-linecap="round" stroke-width="1" x1="3.25" x2="3.25" y1="3.25" y2="3.25" /><line clip-path="url(#border_clip)" stroke="#b3b3b3" stroke-linecap="round" stroke-width="1" x1="16.0" x2="16.0" y1="1.0" y2="1.0" /><line clip-path="url(#border_clip)" stroke="#b3b3b3" stroke-linecap="round" stroke-width="1" x1="16.0" x2="31.0" y1="1.0" y2="1.0" /><line clip-path="url(#border_clip)" stroke="#b3b3b3" stroke-linecap="round" stroke-width="1" x1="31.0" x2="31.0" y1="1.0" y2="16.0" /><line clip-path="url(#border_clip)" stroke="#b3b3b3" stroke-linecap="round" stroke-width="1" x1="31.0" x2="16.0" y1="16.0" y2="16.0" /><line clip-path="url(#border_clip)" stroke="#b3b3b3" stroke-linecap="round" stroke-width="1" x1="16.0" x2="16.0" y1="16.0" y2="1.0" /><polygon clip-path="url(#border_clip)" fill="#b3b3b3" fill-rule="evenodd" points="16.0,1.0 31.0,1.0 31.0,16.0 16.0,16.0 16.0,1.0" /><line clip-path="url(#border_clip)" stroke="#b3b3b3" stroke-linecap="round" stroke-width="1" x1="16.0" x2="31.0" y1="1.0" y2="1.0" /><line clip-path="url(#border_clip)" stroke="#b3b3b3" stroke-linecap="round" stroke-width="1" x1="31.0" x2="31.0" y1="1.0" y2="16.0" /><line clip-path="url(#border_clip)" stroke="#b3b3b3" stroke-linecap="round" stroke-width="1" x1="31.0" x2="16.0" y1="16.0" y2="16.0" /><line clip-path="url(#border_clip)" stroke="#b3b3b3" stroke-linecap="round" stroke-width="1" x1="16.0" x2="16.0" y1="16.0" y2="1.0" /><line clip-path="url(#border_clip)" stroke="#b3b3b3" stroke-linecap="round" stroke-width="1" x1="16.0" x2="16.0" y1="1.0" y2="1.0" /><line clip-path="url(#border_clip)" stroke="#b3b3b3" stroke-linecap="round" stroke-width="1" x1="18.25" x2="18.25" y1="3.25" y2="3.25" /><line clip-path="url(#border_clip)" stroke="#b3b3b3" stroke-linecap="round" stroke-width="1" x1="18.25" x2="28.75" y1="3.25" y2="3.25" /><line clip-path="url(#border_clip)" stroke="#b3b3b3" stroke-linecap="round" stroke-width="1" x1="28.75" x2="28.75" y1="3.25" y2="13.75" /><line clip-path="url(#border_clip)" stroke="#b3b3b3" stroke-linecap="round" stroke-width="1" x1="28.75" x2="18.25" y1="13.75" y2="13.75" /><line clip-path="url(#border_clip)" stroke="#b3b3b3" stroke-linecap="round" stroke-width="1" x1="18.25" x2="18.25" y1="13.75" y2="3.25" /><polygon clip-path="url(#border_clip)" fill="#f8745c" fill-rule="evenodd" points="18.25,3.25 28.75,3.25 28.75,13.75 18.25,13.75 18.25,3.25" /><line clip-path="url(#border_clip)" stroke="#b3b3b3" stroke-linecap="round" stroke-width="1" x1="18.25" x2="28.75" y1="3.25" y2="3.25" /><line clip-path="url(#border_clip)" stroke="#b3b3b3" stroke-linecap="round" stroke-width="1" x1="28.75" x2="28.75" y1="3.25" y2="13.75" /><line clip-path="url(#border_clip)" stroke="#b3b3b3" stroke-linecap="round" stroke-width="1" x1="28.75" x2="18.25" y1="13.75" y2="13.75" /><line clip-path="url(#border_clip)" stroke="#b3b3b3" stroke-linecap="round" stroke-width="1" x1="18.25" x2="18.25" y1="13.75" y2="3.25" /><line clip-path="url(#border_clip)" stroke="#b3b3b3" stroke-linecap="round" stroke-width="1" x1="18.25" x2="18.25" y1="3.25" y2="3.25" /><line clip-path="url(#border_clip)" stroke="#b3b3b3" stroke-linecap="round" stroke-width="1" x1="1.0" x2="1.0" y1="16.0" y2="16.0" /><line clip-path="url(#border_clip)" stroke="#b3b3b3" stroke-linecap="round" stroke-width="1" x1="1.0" x2="16.0" y1="16.0" y2="16.0" /><line clip-path="url(#border_clip)" stroke="#b3b3b3" stroke-linecap="round" stroke-width="1" x1="16.0" x2="16.0" y1="16.0" y2="31.0" /><line clip-path="url(#border_clip)" stroke="#b3b3b3" stroke-linecap="round" stroke-width="1" x1="16.0" x2="1.0" y1="31.0" y2="31.0" /><line clip-path="url(#border_clip)" stroke="#b3b3b3" stroke-linecap="round" stroke-width="1" x1="1.0" x2="1.0" y1="31.0" y2="16.0" /><polygon clip-path="url(#border_clip)" fill="#b3b3b3" fill-rule="evenodd" points="1.0,16.0 16.0,16.0 16.0,31.0 1.0,31.0 1.0,16.0" /><line clip-path="url(#border_clip)" stroke="#b3b3b3" stroke-linecap="round" stroke-width="1" x1="1.0" x2="16.0" y1="16.0" y2="16.0" /><line clip-path="url(#border_clip)" stroke="#b3b3b3" stroke-linecap="round" stroke-width="1" x1="16.0" x2="16.0" y1="16.0" y2="31.0" /><line clip-path="url(#border_clip)" stroke="#b3b3b3" stroke-linecap="round" stroke-width="1" x1="16.0" x2="1.0" y1="31.0" y2="31.0" /><line clip-path="url(#border_clip)" stroke="#b3b3b3" stroke-linecap="round" stroke-width="1" x1="1.0" x2="1.0" y1="31.0" y2="16.0" /><line clip-path="url(#border_clip)" stroke="#b3b3b3" stroke-linecap="round" stroke-width="1" x1="1.0" x2="1.0" y1="16.0" y2="16.0" /><line clip-path="url(#border_clip)" stroke="#b3b3b3" stroke-linecap="round" stroke-width="1" x1="3.25" x2="3.25" y1="18.25" y2="18.25" /><line clip-path="url(#border_clip)" stroke="#b3b3b3" stroke-linecap="round" stroke-width="1" x1="3.25" x2="13.75" y1="18.25" y2="18.25" /><line clip-path="url(#border_clip)" stroke="#b3b3b3" stroke-linecap="round" stroke-width="1" x1="13.75" x2="13.75" y1="18.25" y2="28.75" /><line clip-path="url(#border_clip)" stroke="#b3b3b3" stroke-linecap="round" stroke-width="1" x1="13.75" x2="3.25" y1="28.75" y2="28.75" /><line clip-path="url(#border_clip)" stroke="#b3b3b3" stroke-linecap="round" stroke-width="1" x1="3.25" x2="3.25" y1="28.75" y2="18.25" /><polygon clip-path="url(#border_clip)" fill="#f8745c" fill-rule="evenodd" points="3.25,18.25 13.75,18.25 13.75,28.75 3.25,28.75 3.25,18.25" /><line clip-path="url(#border_clip)" stroke="#b3b3b3" stroke-linecap="round" stroke-width="1" x1="3.25" x2="13.75" y1="18.25" y2="18.25" /><line clip-path="url(#border_clip)" stroke="#b3b3b3" stroke-linecap="round" stroke-width="1" x1="13.75" x2="13.75" y1="18.25" y2="28.75" /><line clip-path="url(#border_clip)" stroke="#b3b3b3" stroke-linecap="round" stroke-width="1" x1="13.75" x2="3.25" y1="28.75" y2="28.75" /><line clip-path="url(#border_clip)" stroke="#b3b3b3" stroke-linecap="round" stroke-width="1" x1="3.25" x2="3.25" y1="28.75" y2="18.25" /><line clip-path="url(#border_clip)" stroke="#b3b3b3" stroke-linecap="round" stroke-width="1" x1="3.25" x2="3.25" y1="18.25" y2="18.25" /><line clip-path="url(#border_clip)" stroke="#7f7f7f" stroke-linecap="round" stroke-width="1" x1="16.0" x2="16.0" y1="16.0" y2="16.0" /><line clip-path="url(#border_clip)" stroke="#7f7f7f" stroke-linecap="round" stroke-width="1" x1="16.0" x2="31.0" y1="16.0" y2="16.0" /><line clip-path="url(#border_clip)" stroke="#7f7f7f" stroke-linecap="round" stroke-width="1" x1="31.0" x2="31.0" y1="16.0" y2="31.0" /><line clip-path="url(#border_clip)" stroke="#7f7f7f" stroke-linecap="round" stroke-width="1" x1="31.0" x2="16.0" y1="31.0" y2="31.0" /><line clip-path="url(#border_clip)" stroke="#7f7f7f" stroke-linecap="round" stroke-width="1" x1="16.0" x2="16.0" y1="31.0" y2="16.0" /><polygon clip-path="url(#border_clip)" fill="#7f7f7f" fill-rule="evenodd" points="16.0,16.0 31.0,16.0 31.0,31.0 16.0,31.0 16.0,16.0" /><line clip-path="url(#border_clip)" stroke="#7f7f7f" stroke-linecap="round" stroke-width="1" x1="16.0" x2="31.0" y1="16.0" y2="16.0" /><line clip-path="url(#border_clip)" stroke="#7f7f7f" stroke-linecap="round" stroke-width="1" x1="31.0" x2="31.0" y1="16.0" y2="31.0" /><line clip-path="url(#border_clip)" stroke="#7f7f7f" stroke-linecap="round" stroke-width="1" x1="31.0" x2="16.0" y1="31.0" y2="31.0" /><line clip-path="url(#border_clip)" stroke="#7f7f7f" stroke-linecap="round" stroke-width="1" x1="16.0" x2="16.0" y1="31.0" y2="16.0" /><line clip-path="url(#border_clip)" stroke="#7f7f7f" stroke-linecap="round" stroke-width="1" x1="16.0" x2="16.0" y1="16.0" y2="16.0" /><line clip-path="url(#border_clip)" stroke="#7f7f7f" stroke-linecap="round" stroke-width="1" x1="18.25" x2="18.25" y1="18.25" y2="18.25" /><line clip-path="url(#border_clip)" stroke="#7f7f7f" stroke-linecap="round" stroke-width="1" x1="18.25" x2="28.75" y1="18.25" y2="18.25" /><line clip-path="url(#border_clip)" stroke="#7f7f7f" stroke-linecap="round" stroke-width="1" x1="28.75" x2="28.75" y1="18.25" y2="28.75" /><line clip-path="url(#border_clip)" stroke="#7f7f7f" stroke-linecap="round" stroke-width="1" x1="28.75" x2="18.25" y1="28.75" y2="28.75" /><line clip-path="url(#border_clip)" stroke="#7f7f7f" stroke-linecap="round" stroke-width="1" x1="18.25" x2="18.25" y1="28.75" y2="18.25" /><polygon clip-path="url(#border_clip)" fill="#fde7a9" fill-rule="evenodd" points="18.25,18.25 28.75,18.25 28.75,28.75 18.25,28.75 18.25,18.25" /><line clip-path="url(#border_clip)" stroke="#7f7f7f" stroke-linecap="round" stroke-width="1" x1="18.25" x2="28.75" y1="18.25" y2="18.25" /><line clip-path="url(#border_clip)" stroke="#7f7f7f" stroke-linecap="round" stroke-width="1" x1="28.75" x2="28.75" y1="18.25" y2="28.75" /><line clip-path="url(#border_clip)" stroke="#7f7f7f" stroke-linecap="round" stroke-width="1" x1="28.75" x2="18.25" y1="28.75" y2="28.75" /><line clip-path="url(#border_clip)" stroke="#7f7f7f" stroke-linecap="round" stroke-width="1" x1="18.25" x2="18.25" y1="28.75" y2="18.25" /><line clip-path="url(#border_clip)" stroke="#7f7f7f" stroke-linecap="round" stroke-width="1" x1="18.25" x2="18.25" y1="18.25" y2="18.25" /><line clip-path="url(#border_clip)" stroke="#999999" stroke-linecap="round" stroke-width="1" x1="1.0" x2="31.0" y1="31.0" y2="31.0" /><line clip-path="url(#border_clip)" stroke="#999999" stroke-linecap="round" stroke-width="1" x1="1.0" x2="31.0" y1="16.0" y2="16.0" /><line clip-path="url(#border_clip)" stroke="#999999" stroke-linecap="round" stroke-width="1" x1="1.0" x2="31.0" y1="1.0" y2="1.0" /><line clip-path="url(#border_clip)" stroke="#999999" stroke-linecap="round" stroke-width="1" x1="1.0" x2="1.0" y1="1.0" y2="31.0" /><line clip-path="url(#border_clip)" stroke="#999999" stroke-linecap="round" stroke-width="1" x1="16.0" x2="16.0" y1="1.0" y2="31.0" /><line clip-path="url(#border_clip)" stroke="#999999" stroke-linecap="round" stroke-width="1" x1="31.0" x2="31.0" y1="1.0" y2="31.0" /></svg>